<svg xmlns="http://www.w3.org/2000/svg" viewBox="0 0 372.02 311.45"><g id="Layer_2" data-name="Layer 2"><g id="Layer_1-2" data-name="Layer 1"><path d="M354,287.49c0,5.94,0,11.41,0,16.88,0,5-2.09,7.07-7,7.07H19.19c-5.16,0-7.16-2.06-7.18-7.29s0-10.72,0-16.66H7.55C1.9,287.46,0,285.55,0,279.8V8.76C0,1.49,1.49,0,8.72,0H363.51C370.46,0,372,1.59,372,8.6V278.89c0,7-1.58,8.6-8.51,8.6ZM12.15,275.27h347.6V12.15H12.15Zm329.72,12.48H24.28V299.3H341.87Z"/><path d="M186.19,24h153.4c6.78,0,8.43,1.63,8.43,8.31V135.6c0,6.41-1.74,8.13-8.24,8.13H32.24c-6.51,0-8.23-1.7-8.23-8.13q0-51.85,0-103.7c0-6.19,1.77-7.94,8-7.94ZM36.25,36.08v95.4H335.84V36.08Z"/><path d="M186,263.53H32.24c-6.51,0-8.23-1.7-8.23-8.13q0-45.85,0-91.72c0-6.19,1.77-7.94,8-7.94H340c6.27,0,8.06,1.76,8.06,7.93v92.1c0,5.91-1.88,7.76-7.86,7.76ZM36.14,251.31h299.6V167.89H36.14Z"/><path d="M162.21,59.62V48.1H209.7V59.62Z"/><path d="M162.21,191.4V179.88H209.7V191.4Z"/></g></g></svg>