<svg xmlns="http://www.w3.org/2000/svg" viewBox="0 0 408.83 212.27"><g id="Layer_2" data-name="Layer 2"><g id="Layer_1-2" data-name="Layer 1"><path d="M408.83,92.68c-.72,1.79-1.46,3.59-2.17,5.39a28,28,0,0,1-13.5,15.12c-2.32,1.19-2.86,2.54-2.84,4.92.09,15.3.06,30.6,0,45.91,0,10.83-5.62,16.38-16.52,16.41h-9.57c1.69,6.26,3.28,12.13,4.86,18,2.36,8.73-1.41,13.73-10.43,13.82-2,0-4,0-6,0a10.52,10.52,0,0,1-10-6.06c-3.92-7.54-8-15-11.83-22.58-1.17-2.34-2.47-3.24-5.15-3.23q-121.36.12-242.72,0c-2.72,0-4,1-5.12,3.28-3.76,7.47-7.85,14.78-11.64,22.24a10.79,10.79,0,0,1-10.58,6.37c-2.27,0-4.53.07-6.79,0-7.48-.33-11.34-5.42-9.53-12.72,1.25-5,2.75-10,4.11-15,.34-1.24.61-2.5,1-4.1-4,0-7.55,0-11.12,0-8.67-.17-14.55-5.88-14.84-14.46-.11-3.33-.15-6.66,0-10,.21-3.95,2.87-6.58,6.21-6.49s5.58,2.56,5.82,6.37c.17,2.78.16,5.58.06,8.37s1,4.3,3.94,4.1c.93-.06,1.86,0,2.79,0H371.51c6.67,0,6.68,0,6.68-6.51v-44.5c-3.28-.8-6.12-1.36-8.87-2.2-4.57-1.41-6.33-4.17-5.24-7.82s4.13-4.87,8.71-3.6c11.39,3.16,21.12-2.31,23.53-13.24a17.8,17.8,0,0,0-13.9-20.89c-9.55-1.76-19.14,4.76-20.73,14.22a42.71,42.71,0,0,0-.53,7.15c-.05,17.56,0,35.13,0,52.69,0,7.15-1.78,8.87-9,8.87H56.69c-7.2,0-9-1.72-9-8.92,0-18,0-35.92,0-53.89,0-10.26-4.65-17.13-13-19.65a17.68,17.68,0,1,0-.5,34.15c1.15-.31,2.28-.75,3.45-1,3.5-.65,6.24,1,7.16,4.11A5.78,5.78,0,0,1,41,114.68a27,27,0,0,1-7.3,1.8c-2.49.18-3.17,1.16-3.08,3.45.12,3.32.08,6.66,0,10-.12,5.14-2.22,7.63-6.21,7.52-3.73-.1-5.86-2.72-5.93-7.48-.07-4.26.11-8.52-.11-12.77a4.49,4.49,0,0,0-1.83-3.36A29.94,29.94,0,0,1,.4,82.29C2.59,69,12,60.12,27.33,57.06c0-1.69,0-3.5,0-5.32C27.5,41.38,27.12,31,28,20.66,29.07,8.68,39.42-.06,51.54.18,61.1.37,70.65,1.35,80.21,1.75,93,2.3,105.75,3.18,118.49,2.92,139,2.5,159.43,1.5,179.87.28c11.66-.69,16.33.25,25.44,7.56,6.22-6.31,14-8.5,22.78-7.67,4.9.46,9.81.82,14.73,1,16.74.66,33.5,1.87,50.23,1.67,20.2-.24,40.4-1.53,60.57-2.71,11.62-.67,21.14,2.39,26.65,13.29a29.13,29.13,0,0,1,2.65,10.31A117.05,117.05,0,0,1,383,38.49c-.15,4-2.69,6.64-6,6.71s-5.93-2.45-6.14-6.51c-.24-4.52,0-9-.12-13.57-.18-8.81-5.63-13.69-14.42-12.93a778.25,778.25,0,0,1-100.48,2.1c-9.83-.42-19.64-1.25-29.45-2.07-9.53-.81-15,3.91-15.06,13.44-.07,10.11,0,20.23,0,30.34,0,1.58.2,3.57-.63,4.64a11,11,0,0,1-5.26,4c-2.68.72-4.91-1-5.74-3.74a17.75,17.75,0,0,1-.64-5.1c-.05-10.11,0-20.22,0-30.34,0-9-5.49-14-14.48-13.23A776.46,776.46,0,0,1,84.07,14.28c-9.83-.41-19.64-1.26-29.45-2.07-9.31-.78-14.88,3.93-15,13.15-.11,10.11,0,20.23-.06,30.34,0,2.08.5,3.28,2.56,4.29C53.61,65.58,59.27,75.05,59.8,87.66c.19,4.62,0,9.25,0,14.36a357.49,357.49,0,0,1,69.85-5.85,353.13,353.13,0,0,1,69.39,8c0-6.23,0-12,0-17.84,0-6.31,2-9.43,6.11-9.46s6.19,3.13,6.2,9.37c0,5.69,0,11.38,0,17.54a361.4,361.4,0,0,1,138.14-1.62c0-6.63-.61-12.78.12-18.77,1.78-14.71,13.33-25.15,28.17-26.2,13.1-.93,25.68,8.25,29.89,21.79.34,1.13.74,2.24,1.12,3.36Zm-60,21c-13.91-1.5-27.83-3.37-41.8-4.43a332.11,332.11,0,0,0-88.48,5.45c-5.9,1.14-12.1,2.48-17.95,1.83-17-1.9-33.81-5.79-50.83-7-18-1.23-36.15-.73-54.19,0-11.86.51-23.64,2.82-35.49,4.33v26.23H348.79ZM51.67,200.53c2.11-.84,4-1,4.56-1.92,3.32-5.79,6.34-11.77,9.72-18.17a41.72,41.72,0,0,0-6.66.1,3.84,3.84,0,0,0-2.57,2.13C55,188.2,53.54,193.8,51.67,200.53Zm305.51.15c-1.92-7-3.42-12.73-5.11-18.4a3,3,0,0,0-2.1-1.75,66.88,66.88,0,0,0-7.05-.08c3.39,6.45,6.27,12.22,9.49,17.81C353,199.31,354.94,199.59,357.18,200.68Z"/><path d="M166.22,50.42c3.81.75,7.08,1.85,7.06,6.37s-3.32,5.59-6.65,6.28c-.72,1.72-1,3.77-2.13,4.74-1.47,1.24-3.88,2.48-5.51,2.09a7.58,7.58,0,0,1-4.58-4.21c-.7-1.89-1.39-2.83-3.26-3.23a5.41,5.41,0,0,1-4.56-5.73,5.61,5.61,0,0,1,4.6-5.73c1-.26,2.58-1,2.7-1.73.66-3.91,2.76-6.19,6.69-5.86C164.35,43.73,165.83,46.6,166.22,50.42Z"/><path d="M256.59,63.26c-.27,3.8-1.81,6.56-5.85,6.93-3.35.3-5.43-2-6.73-7.06-3.14-.71-6.34-1.49-6.81-5.5-.37-3.18.9-5.56,4.05-6.42,1.93-.53,3.11-1.09,3.54-3.39a5.36,5.36,0,0,1,5.81-4.47c2.93.1,4.83,1.79,5.73,4.71.31,1,1.22,2.45,2.1,2.67,3.47.84,5.53,2.81,5.39,6.36-.13,3.39-2.41,5.14-5.65,5.73C257.79,62.89,257.41,63,256.59,63.26Z"/><path d="M72.59,63.15c-3.83-.71-7.25-1.84-7.15-6.53.09-4.49,3.37-5.55,7-6.15l-.89-.87c1.82-2,3.31-4.58,5.55-5.84,2.94-1.66,6.31.76,7.51,4.38.33,1,1.22,2.38,2.1,2.6,3.44.87,5.45,2.76,5.31,6.37s-2.43,5.08-5.6,5.71c-.39.07-.77.2-1.41.37-.51,3.65-1.9,7-6.35,7C74.5,70.09,72.79,67.14,72.59,63.15Z"/><path d="M338.09,50.42c3.62.74,7.05,1.84,6.9,6.57-.13,4.24-3.17,5.41-6.91,6.09-.62,3.77-2,7.31-6.71,7.06-3.95-.21-5.66-3-5.76-6.87-1.27-.36-2.78-.32-3.45-1.06-1.5-1.62-3.57-3.63-3.56-5.47s1.89-4.34,3.64-5.32,3.24-1.48,4-4a7,7,0,0,1,5.18-3.89c1.83-.09,3.93,2,5.6,3.42C337.77,47.65,337.74,49.19,338.09,50.42Z"/></g></g></svg>