<svg xmlns="http://www.w3.org/2000/svg" viewBox="0 0 365.37 316.13"><g id="Layer_2" data-name="Layer 2"><g id="Layer_1-2" data-name="Layer 1"><path d="M140.4,282.78c-10.06-1-15.27-5.52-15.57-13.1-.31-8,4.31-12.35,15.4-14.44V148.94c-1.27-.18-2.46-.37-3.66-.52a13.23,13.23,0,0,1,1.24-26.37c11.11-.09,22.22,0,33.32,0H323.37c.82-14.67.56-29-5.12-42.5-13.81-32.88-38.27-51.41-74-54.39a24.87,24.87,0,0,1-2.6-.25c-2.46-.48-3.75-2-3.43-4.51.31-2.38,1.88-3.65,4.18-3.28,9.06,1.47,18.45,2,27.07,4.88,37.18,12.27,62,47.24,62.24,86.49,0,4.35,0,8.71,0,13.31h9.68c0-7.86.76-15.77-.13-23.49-4.47-38.65-24.53-66.23-60-82.33-13.14-6-27.17-8-41.53-7.91-5.63.05-8.48,3-8.54,8.61s0,11,0,16.7c5.3.84,10.48,1.35,15.51,2.51,16.67,3.87,29.77,12.38,36.63,28.88.49,1.18,2.24,2.1,3.6,2.59A19.17,19.17,0,1,1,262.55,91c-3-9.94,1.77-19,12.95-24.08-3.24-8.24-9.06-14.14-16.69-18.23-12.42-6.66-25.88-7.76-39.62-6.62-11,.91-21.31,3.83-30,11.17A30.42,30.42,0,0,0,179.76,67c8.7,3.48,13.86,9.62,13.6,19.35a19,19,0,0,1-17.47,18.33c-9,.89-18.06-5.74-20.06-14.6-2.15-9.54,2.8-19.21,11.88-22.33,2.72-.93,3.83-2.42,4.87-4.84,6.57-15.31,19-23.24,34.6-26.95,5.06-1.21,10.31-1.66,16-2.53,0-5.31,0-10.76,0-16.21,0-10.62,6.3-17,16.92-17.16,53-.85,97.76,35.46,107.76,87.63,1.26,6.58,1.39,13.4,1.77,20.12.26,4.59.05,9.21.05,14.19,5.21-.25,9.89.81,12.7,5.13a17.36,17.36,0,0,1,2.87,8.26c.36,7.55-4.5,11.68-15.34,13.68V255.27c10.83,1.9,15.71,6.42,15.47,14.27-.24,7.66-5.57,12.26-15.7,13.21v3.59c0,8.13,0,16.26,0,24.38,0,3.85-1.31,5.26-5.1,5.34-5.37.1-10.74.09-16.1,0-4-.07-5.4-1.47-5.47-5.47-.08-4.37,0-8.75-.05-13.12-.19-9-6.25-15-15.22-15q-62.71,0-125.42,0c-8.79,0-15,6.2-15.29,15-.12,4.37,0,8.75,0,13.13,0,4.06-1.25,5.33-5.38,5.39q-7.86.12-15.72,0c-4.05-.06-5.39-1.38-5.43-5.46-.08-7.87,0-15.75,0-23.62Zm104.44-8.37H348.91a23.3,23.3,0,0,0,3.74-.07c2.79-.45,4.5-2.1,4.6-5,.1-3.12-1.65-4.86-4.56-5.45a14.88,14.88,0,0,0-3-.07H140.43c-.87,0-1.75-.06-2.62,0-3,.3-5.31,2.66-5,5.46s1.91,4.83,5,5.09c1.12.1,2.25,0,3.37,0ZM245.61,130H141.9c-1.38,0-2.75,0-4.12.09a4.9,4.9,0,0,0-5,5.06c-.1,3,1.71,4.88,4.69,5.39a19.81,19.81,0,0,0,3.36.14H349.4a15.88,15.88,0,0,0,3.72-.24c2.74-.66,4.32-2.42,4.19-5.37a4.75,4.75,0,0,0-4.63-4.94,41.82,41.82,0,0,0-4.48-.13ZM167.2,148.86V255.48h18.61V148.86Zm64.28,106.67V148.91H212.92V255.53Zm45.5,0V148.91H258.6V255.53Zm45.8,0V148.92h-18.5V255.53ZM285.54,148.8V255.42h10.15V148.8Zm55.91,106.71V148.94H331.24V255.51ZM158.81,149H148.6V255.38h10.21Zm45.52,106.56V148.94H194.26V255.51Zm45.66,0V148.93H239.91V255.52ZM280.67,74.45a11.14,11.14,0,0,0-11,11.27,11.16,11.16,0,1,0,11-11.27ZM174.44,96.57a11.07,11.07,0,1,0-11.21-11.11A11.24,11.24,0,0,0,174.44,96.57ZM159,308c.05-8.89-.88-17.63,5.28-25.18H148.59V308Zm166.71-25.27c6.75,7.63,5,16.63,5.4,25.2h10.32v-25.2Z"/><path d="M9.52,280.56c-10.7-8-12.26-16.91-5.28-27.88a73.37,73.37,0,0,1,25-24c-9.14-7.82-14.34-17.32-13.46-29.6-1.36-.25-2.44-.43-3.52-.66A15.25,15.25,0,0,1,.63,179.67,29.53,29.53,0,0,1,16,160.3a16.27,16.27,0,0,1,22.29,7.35c.44.87.85,1.75,1.4,2.89a49,49,0,0,1,34.64,0c.5-.94,1-1.75,1.38-2.6a16.47,16.47,0,0,1,19-9.06c9,2.08,19,14.44,19.17,23.7.19,8.48-4.74,14.47-13.13,16-.73.13-1.44.32-2.53.57,1.07,12.08-3.94,21.52-13.24,29.34,1.2.85,2.14,1.57,3.13,2.21A72.13,72.13,0,0,1,110,252.91c6.76,10.67,5.09,19.74-5.27,27.49,3.4,6.24,3.3,13.08,2.45,19.91a17.54,17.54,0,0,1-14.31,15.28c-8.15,1.45-15.75-2.06-19.37-9.42-1.19-2.42-2.48-2.54-4.86-2.46-7.69.28-15.4.29-23.09,0-2.36-.08-3.72-.05-4.94,2.38a17.88,17.88,0,0,1-33.87-8.35C6.72,292,5.84,286,9.52,280.56ZM86,271.17c-1.46-3.56-3-7.95-5.07-12.12-1.17-2.41-1.86-4.51.53-6.29s4.41-.52,6,1.57c.5.64,1.09,1.22,1.24,1.4L97.62,248c-6.58-4.75-12.55-9.18-18.68-13.37a5.21,5.21,0,0,0-4.11-.29,49.25,49.25,0,0,1-35.41.08,5.25,5.25,0,0,0-3.78,0,64.59,64.59,0,0,0-18.3,14.07l7.76,7.71c.26-.28.45-.44.6-.64,1.63-2.25,3.24-5,6.56-2.87s1.57,4.6.22,7.35a106.48,106.48,0,0,0-4.26,11.29c4,2.83,6.93,5,10,7.07a5.26,5.26,0,0,0,2.56,1.17q16.25.12,32.48,0a5.12,5.12,0,0,0,2.58-1.13C78.82,276.34,81.8,274.18,86,271.17ZM61.56,229.41A35.1,35.1,0,0,0,80.7,221.6c13-10.75,12.83-27.73-.26-38.35-12.35-10-31.83-10.58-45.06-1.31-9.89,6.94-13.94,17.85-10.38,28,3.7,10.61,17.12,19.82,27.87,19.08.77-2.7.49-4.73-2.72-5.71a13.18,13.18,0,0,1-4.09-2.56,9.68,9.68,0,0,1-3.3-11.05,9.9,9.9,0,0,1,9.44-6.63c3.37-.06,6.74-.1,10.1,0a9.31,9.31,0,0,1,8.85,6.32c2.19,5.42-.28,10.72-7,13.74C61.27,224.49,60.57,226.12,61.56,229.41ZM79,294.16l.32,0c0,1.37-.08,2.74,0,4.11A10.32,10.32,0,0,0,88.94,308,9.62,9.62,0,0,0,99.06,300a43,43,0,0,0-.25-12.56c-.7-4.23-4.71-6.93-8.93-7.11a9.56,9.56,0,0,0-9.77,6.56C79.39,289.18,79.36,291.72,79,294.16Zm-44.46-.22c0-1.5.09-3,0-4.5a9.67,9.67,0,0,0-9.88-9.2,9.6,9.6,0,0,0-9.85,9.21,76.92,76.92,0,0,0,0,9.36,9.88,9.88,0,0,0,19.73,0C34.65,297.19,34.55,295.56,34.56,293.94ZM32.22,174.33c-2.87-8.32-9.12-10.51-15.31-5a34.76,34.76,0,0,0-8.13,11.29c-2.36,5.14,1.46,10.17,7.14,10.32a3.41,3.41,0,0,0,2.67-1.32A39.47,39.47,0,0,1,32.22,174.33Zm73.61,9c.07-6.38-7.63-15.67-14-16.82A8.26,8.26,0,0,0,82.73,172a4,4,0,0,0,1,3.57,40,40,0,0,1,11.48,13.57,3.66,3.66,0,0,0,2.35,1.82A7.47,7.47,0,0,0,105.83,183.35ZM71.15,295.16v-7.05H42.83v7.1A64.29,64.29,0,0,0,71.15,295.16Zm-59-40.24a62.26,62.26,0,0,0-3.38,6c-2.06,4.91.25,10.89,5.06,12.29,1.85.54,5.55.09,5.95-.89,1.05-2.63,1.91-6.41.75-8.61C18.76,260.39,15.21,258,12.16,254.92Zm89.43,0a72.58,72.58,0,0,1-5.44,5.71c-2.92,2.47-4.23,5-2.83,9,1.26,3.63,3.62,5.58,6.92,3.58a13.51,13.51,0,0,0,5.28-6.2C107.3,262.53,104.6,258.92,101.59,254.89Zm-44.4-43.73a41.26,41.26,0,0,0-4.85.06,2.64,2.64,0,0,0-1.94,1.3,2.84,2.84,0,0,0,.92,2.16,8.27,8.27,0,0,0,11.39,0,2.83,2.83,0,0,0,.83-2.21,2.61,2.61,0,0,0-1.88-1.3A33.3,33.3,0,0,0,57.19,211.16Z"/><path d="M212.21,81.52c.65-2.14.92-4.19,1.85-5.87q4.26-7.68,9-15.1c2.32-3.66,5.9-3.58,8.37.11,3,4.45,5.86,9,8.72,13.51a12.39,12.39,0,0,1,.43,13.46c-2.3,4.14-4.58,8.29-7,12.39-3.24,5.55-8.36,5.68-11.71.28-2.5-4-5-8.06-7.24-12.22A47.54,47.54,0,0,1,212.21,81.52Zm15.23-12.34c-8.09,11.42-7.85,17.57.63,24.4,1.84-3.27,3.87-6.43,5.39-9.82a6.37,6.37,0,0,0,0-4.85A114.29,114.29,0,0,0,227.44,69.18Z"/><path d="M40.21,200.64c-1.1-1.51-2.88-2.91-3.14-4.55a3.3,3.3,0,0,1,3.83-3.86c1.48.26,3.57,2.23,3.7,3.59S42.93,199,42,200.56Z"/><path d="M77.68,196.94c-1.54,1-3,2.68-4.64,2.92a3.22,3.22,0,0,1-3.69-3.94c.32-1.5,2.35-3.55,3.72-3.63s3.06,1.83,4.6,2.88Z"/></g></g></svg>