<?xml version="1.0" encoding="utf-8"?>
<!-- Generator: Adobe Illustrator 25.2.1, SVG Export Plug-In . SVG Version: 6.00 Build 0)  -->
<svg version="1.1" id="Layer_1" xmlns="http://www.w3.org/2000/svg" xmlns:xlink="http://www.w3.org/1999/xlink" x="0px" y="0px"
	 viewBox="0 0 400 400" style="enable-background:new 0 0 400 400;" xml:space="preserve">
<style type="text/css">
	.st0{fill:#111111;}
	.st1{fill:#FFFFFF;}
</style>
<g>
	<g>
		<path class="st0" d="M232.28,218.66c33.8,0,67.6,0.08,101.4-0.07c6.42-0.03,8.67,3.91,8.66,8.66c-0.09,33.93-0.02,67.86,0,101.79
			c0,5.92-2.49,8.45-8.35,8.45c-67.86,0.01-135.72,0.02-203.58,0.02c-1.16,0-2.36,0.02-3.48-0.23c-3.04-0.67-5.11-3.5-5.12-6.96
			c-0.01-34.77-0.01-69.55,0.01-104.32c0-4.7,2.97-7.34,8.09-7.34c31.34,0,62.67,0,94.01,0
			C226.7,218.66,229.49,218.66,232.28,218.66z M235.62,247.48c1.9,1.15,3.46,1.92,4.8,2.97c2.18,1.7,3.17,4.17,3.99,6.75
			c1.41,4.42,4.72,6.33,8.78,5.21c3.92-1.08,6.05-4.72,4.77-9.05c-2.39-8.06-7.69-13.37-15.89-15.56c-1.68-0.45-3.43-0.69-5.16-0.94
			c-1.02-0.15-1.47-0.57-1.44-1.64c0.06-1.88,0.03-3.76,0.01-5.64c-0.03-2.59-1.26-4.09-3.36-4.17c-2.1-0.08-3.55,1.54-3.63,4.15
			c-0.06,1.88-0.06,3.76-0.02,5.64c0.02,1.11-0.39,1.62-1.54,1.75c-1.41,0.15-2.82,0.44-4.2,0.79c-9.48,2.4-15.72,7.91-17.24,17.97
			c-1.63,10.76,2.98,19.21,13,23.52c2.67,1.15,5.43,2.13,8.22,2.98c1.38,0.42,1.8,1.09,1.79,2.47c-0.06,7.07-0.03,14.14-0.04,21.21
			c0,0.61-0.11,1.22-0.2,2.03c-3.91-1.19-6.67-3.43-8.33-6.83c-1.11-2.26-1.89-4.68-2.77-7.05c-1.33-3.59-4.5-5.3-8.41-4.48
			c-3.33,0.7-6.09,4.03-5.54,7.43c0.49,3.02,1.2,6.19,2.64,8.84c4.34,8,11.58,12,20.37,13.31c1.87,0.28,2.39,1,2.28,2.74
			c-0.12,1.81-0.1,3.64,0.02,5.44c0.15,2.16,1.76,3.58,3.7,3.45c1.87-0.12,3.18-1.56,3.24-3.69c0.06-1.94,0.1-3.9,0-5.84
			c-0.07-1.39,0.43-1.78,1.8-2.09c3.46-0.78,7.08-1.41,10.22-2.94c9.42-4.6,13.77-12.51,13.29-22.89
			c-0.45-9.71-5.69-16.15-14.59-19.67c-2.83-1.12-5.76-1.99-8.7-2.79c-1.5-0.41-2.08-1.03-2.05-2.66c0.11-6.1,0.04-12.19,0.05-18.29
			C235.5,249.32,235.56,248.74,235.62,247.48z M319.99,225.39c-3.83,0-7.65-0.05-11.48,0.01c-4.53,0.07-4.61-0.97-3.91,4.54
			c1.82,14.26,14.72,26.15,28.77,26.6c1.58,0.05,2.15-0.35,2.14-2.02c-0.07-9.01-0.07-18.03-0.01-27.04
			c0.01-1.61-0.48-2.16-2.09-2.13C328.94,225.45,324.47,225.39,319.99,225.39z M319.67,330.74c4.54,0,9.08-0.06,13.61,0.03
			c1.67,0.03,2.25-0.45,2.24-2.19c-0.08-8.75-0.03-17.5-0.04-26.25c0-2.9-0.01-2.9-2.95-2.66c-15.02,1.26-27.3,13.86-28.25,28.9
			c-0.11,1.78,0.49,2.24,2.16,2.21C310.85,330.68,315.26,330.74,319.67,330.74z M128.61,240.87
			C128.61,240.87,128.61,240.87,128.61,240.87c0.01,4.67,0.04,9.34-0.01,14.01c-0.01,1.25,0.39,1.82,1.68,1.66
			c0.58-0.07,1.17-0.05,1.75-0.11c15.2-1.71,26.81-13.98,27.72-29.18c0.09-1.51-0.43-1.91-1.84-1.9c-9.14,0.04-18.29,0.04-27.43,0
			c-1.43-0.01-1.91,0.46-1.89,1.91C128.66,231.79,128.61,236.33,128.61,240.87z M128.6,315.18
			C128.6,315.18,128.6,315.18,128.6,315.18c-0.01,4.6,0.02,9.2-0.03,13.8c-0.01,1.2,0.29,1.77,1.61,1.77
			c9.33-0.03,18.66-0.03,27.99,0c1.18,0,1.55-0.43,1.54-1.61c-0.17-15.16-13.98-29.12-29.18-29.54c-1.61-0.04-1.98,0.51-1.96,1.99
			C128.65,306.11,128.6,310.64,128.6,315.18z"/>
	</g>
	<g>
		<path class="st0" d="M112.92,287.41c-3.76-2.85-7.65-5.53-11.24-8.57c-24.53-20.79-38.96-47.16-43.04-79.06
			C50.9,139.33,89.68,82.19,148.91,66.54c53.87-14.23,110.93,9.92,138.03,58.73c14.42,25.98,18.66,53.76,13.33,83
			c-0.3,1.66-0.97,2.21-2.67,2.17c-4.6-0.11-9.21-0.03-13.82-0.03c-0.69,0-1.39,0-2.11,0c0.74-4.53,1.59-8.79,2.11-13.08
			c2.34-19.4-0.38-38.13-8.72-55.77c-15.35-32.48-40.88-52.54-76.09-59.35c-28.4-5.49-54.92,0.46-78.64,17.03
			c-24.41,17.04-38.99,40.63-43.53,70.03c-4.08,26.41,1.62,50.92,16.15,73.34c5.33,8.22,11.83,15.42,19.27,21.79
			c0.58,0.5,1.22,1.33,1.22,2.02c0.09,6.87,0.05,13.74,0.05,20.61C113.31,287.17,113.12,287.29,112.92,287.41z"/>
	</g>
	<g>
		<path class="st0" d="M197.89,210.35c-4.78,0-9.18,0.04-13.58-0.05c-0.51-0.01-1.26-0.66-1.47-1.19
			c-2.86-7.16-5.66-14.35-8.44-21.55c-0.77-2.01-0.44-3.97,0.62-5.8c11.76-20.31,23.52-40.62,35.29-60.92
			c2.22-3.83,6.26-5.12,9.73-3.14c3.45,1.97,4.33,6.12,2.09,10.02c-10.89,18.87-21.78,37.73-32.71,56.57
			c-0.69,1.18-0.78,2.16-0.27,3.43c2.69,6.74,5.3,13.52,7.92,20.28C197.31,208.66,197.53,209.33,197.89,210.35z"/>
	</g>
	<g>
		<path class="st0" d="M186.59,93.77c0,1.43,0.05,2.85-0.01,4.28c-0.11,2.75-1.91,4.6-4.62,4.84c-0.13,0.01-0.26,0.01-0.39,0.01
			c-6.7,0.32-8.04-0.96-8.01-7.64c0.01-1.88-0.03-3.76,0.03-5.64c0.11-3.03,1.86-4.76,4.87-4.92c5.85-0.31,8.56,0.49,8.14,7.71
			c-0.03,0.45,0,0.91,0,1.36C186.6,93.77,186.6,93.77,186.59,93.77z"/>
	</g>
	<g>
		<path class="st0" d="M88.92,191.39c-1.43,0-2.85,0.03-4.28-0.01c-2.73-0.08-4.48-1.7-4.77-4.41c-0.03-0.32-0.02-0.65-0.02-0.97
			c0.16-6.82,1.03-7.67,7.86-7.67c1.75,0,3.5-0.04,5.25,0.01c3.18,0.09,4.83,1.83,5.02,4.96c0.38,6.22-0.76,8.48-7.71,8.08
			C89.83,191.37,89.38,191.4,88.92,191.39z"/>
	</g>
	<g>
		<path class="st0" d="M271.18,191.39c-1.49,0-2.98,0.05-4.47-0.01c-2.59-0.11-4.35-1.83-4.51-4.42c-0.08-1.29-0.07-2.59-0.01-3.89
			c0.12-2.84,1.82-4.61,4.64-4.7c2.91-0.09,5.83-0.1,8.75,0.01c2.83,0.1,4.53,1.91,4.63,4.72c0.05,1.36,0.06,2.73-0.05,4.08
			c-0.19,2.38-1.93,4.07-4.32,4.2C274.3,191.45,272.74,191.39,271.18,191.39z"/>
	</g>
	<g>
		<path class="st0" d="M232,329.75c-1.35,0-2.36-1.04-2.46-2.52c-0.13-1.79-0.14-3.57-0.03-5.31c0.15-2.31-0.79-3.45-3.14-3.8
			c-9.16-1.37-15.77-5.67-19.63-12.79c-1.46-2.69-2.12-5.96-2.53-8.52c-0.44-2.72,1.78-5.66,4.75-6.29
			c0.57-0.12,1.14-0.18,1.67-0.18c2.64,0,4.63,1.43,5.58,4.02c0.19,0.52,0.38,1.05,0.57,1.58c0.66,1.85,1.35,3.76,2.24,5.57
			c1.79,3.66,4.72,6.06,8.94,7.35l1.17,0.36l0.12-1.22c0.03-0.27,0.06-0.51,0.08-0.74c0.06-0.48,0.11-0.92,0.12-1.39
			c0.01-2.46,0.01-4.93,0.01-7.39c0-4.6,0-9.21,0.04-13.81c0.02-1.87-0.73-2.9-2.5-3.44c-2.91-0.89-5.64-1.88-8.12-2.94
			c-9.57-4.11-13.97-12.08-12.4-22.44c1.37-9.07,6.77-14.68,16.5-17.14c1.51-0.38,2.84-0.63,4.06-0.76
			c1.65-0.18,2.48-1.11,2.44-2.77c-0.04-1.89-0.03-3.77,0.03-5.59c0.06-1.99,0.98-3.17,2.47-3.17l0.11,0
			c1.56,0.06,2.37,1.13,2.39,3.17l0,0.19c0.02,1.78,0.04,3.61-0.01,5.41c-0.05,1.54,0.73,2.44,2.3,2.67
			c1.74,0.25,3.45,0.49,5.04,0.92c7.76,2.08,12.88,7.08,15.19,14.87c0.55,1.85,0.42,3.58-0.38,5.01c-0.74,1.34-2.05,2.32-3.69,2.78
			c-0.67,0.18-1.32,0.28-1.93,0.28c-2.64,0-4.63-1.71-5.62-4.82c-0.79-2.48-1.84-5.3-4.34-7.24c-0.96-0.75-1.98-1.33-3.16-2.02
			c-0.54-0.31-1.12-0.64-1.73-1.02l-1.44-0.88l-0.09,1.68c-0.02,0.47-0.05,0.84-0.07,1.15c-0.04,0.56-0.06,0.93-0.06,1.31
			c0,1.8,0,3.6,0,5.4c0.01,4.22,0.02,8.59-0.06,12.87c-0.04,2.04,0.77,3.09,2.79,3.64c2.6,0.71,5.66,1.59,8.59,2.75
			c8.85,3.5,13.54,9.82,13.95,18.78c0.47,10.2-3.81,17.59-12.73,21.94c-2.55,1.25-5.52,1.89-8.4,2.52c-0.54,0.12-1.07,0.23-1.6,0.35
			c-1.63,0.37-2.69,1.04-2.58,3.12c0.1,1.89,0.06,3.8,0,5.75c-0.04,1.59-0.93,2.63-2.3,2.72C232.11,329.75,232.05,329.75,232,329.75
			z M234.65,309.44l1.11-0.12c6.65-0.71,11.92-5.77,12.25-11.76c0.39-7.06-3.69-11.62-12.14-13.55l-1.23-0.28V309.44z
			 M228.25,246.87c-5.3,0.46-9.74,4.85-10.12,10c-0.44,5.97,3.2,10.34,9.97,12l1.25,0.3v-22.39L228.25,246.87z"/>
		<path class="st1" d="M231.98,227.42l0.07,0c0.45,0.02,1.4,0.05,1.42,2.18l0,0.21c0.02,1.76,0.04,3.58-0.01,5.35
			c-0.06,2.05,1.09,3.4,3.17,3.69l0.12,0.02c1.68,0.24,3.27,0.47,4.8,0.88c7.4,1.98,12.28,6.75,14.48,14.19
			c0.47,1.58,0.37,3.05-0.29,4.24c-0.62,1.12-1.68,1.91-3.08,2.29c-0.58,0.16-1.14,0.24-1.67,0.24c-2.77,0-4.06-2.24-4.66-4.12
			c-0.84-2.63-1.96-5.61-4.68-7.73c-1.02-0.79-2.12-1.42-3.28-2.09c-0.54-0.31-1.11-0.64-1.71-1l-2.88-1.75l-0.18,3.37
			c-0.02,0.46-0.05,0.82-0.07,1.13c-0.04,0.56-0.06,0.96-0.06,1.38c0,1.81,0,3.62,0,5.43c0.01,4.21,0.02,8.56-0.06,12.82
			c-0.04,2.49,1.08,3.96,3.53,4.63c2.57,0.7,5.59,1.57,8.49,2.72c8.44,3.34,12.93,9.36,13.32,17.89
			c0.45,9.77-3.64,16.83-12.17,20.99c-2.44,1.19-5.35,1.82-8.17,2.44c-0.54,0.12-1.08,0.23-1.61,0.35c-0.97,0.22-3.55,0.8-3.37,4.16
			c0.1,1.85,0.06,3.74,0,5.67c-0.02,0.62-0.22,1.67-1.36,1.74c-0.04,0-0.07,0-0.1,0c-0.82,0-1.39-0.62-1.46-1.59
			c-0.12-1.74-0.13-3.49-0.02-5.17c0.18-2.84-1.12-4.43-3.99-4.86c-8.96-1.33-15.14-5.35-18.9-12.27c-1.39-2.55-2.02-5.72-2.42-8.2
			c-0.35-2.18,1.54-4.63,3.96-5.14c0.51-0.11,1-0.16,1.47-0.16c2.19,0,3.84,1.2,4.64,3.37c0.19,0.52,0.38,1.05,0.57,1.58
			c0.67,1.87,1.37,3.81,2.28,5.66c1.9,3.87,5.11,6.52,9.55,7.87l2.35,0.72l0.24-2.44c0.03-0.26,0.05-0.49,0.08-0.71
			c0.06-0.51,0.12-0.99,0.12-1.51c0.01-2.45,0.01-4.9,0.01-7.34c0-4.54,0-9.24,0.04-13.85c0.02-2.3-1.03-3.74-3.21-4.41
			c-2.92-0.89-5.54-1.84-8.01-2.9c-9.11-3.91-13.3-11.5-11.81-21.37c1.31-8.63,6.46-13.96,15.75-16.32
			c1.47-0.37,2.75-0.61,3.92-0.74c2.17-0.23,3.39-1.61,3.34-3.79c-0.04-1.85-0.03-3.72,0.02-5.54
			C230.54,228.8,230.76,227.42,231.98,227.42 M230.35,270.45v-2.57v-20.01v-2.2l-2.19,0.19c-5.78,0.5-10.63,5.3-11.04,10.92
			c-0.48,6.51,3.44,11.26,10.73,13.05L230.35,270.45 M233.64,310.57l2.23-0.24c7.13-0.77,12.79-6.23,13.15-12.71
			c0.43-7.62-3.92-12.53-12.92-14.59l-2.46-0.56V285v23.33V310.57 M231.98,225.41c-2.02,0-3.4,1.6-3.48,4.15
			c-0.06,1.88-0.06,3.76-0.02,5.64c0.02,1.11-0.39,1.62-1.54,1.75c-1.41,0.15-2.82,0.44-4.2,0.79c-9.48,2.4-15.72,7.91-17.24,17.97
			c-1.63,10.76,2.98,19.21,13,23.52c2.67,1.15,5.43,2.13,8.22,2.98c1.38,0.42,1.8,1.09,1.79,2.47c-0.06,7.07-0.03,14.14-0.04,21.21
			c0,0.61-0.11,1.22-0.2,2.03c-3.91-1.19-6.67-3.43-8.33-6.83c-1.11-2.26-1.89-4.68-2.77-7.05c-1.11-3-3.5-4.68-6.53-4.68
			c-0.6,0-1.23,0.07-1.88,0.2c-3.33,0.7-6.09,4.03-5.54,7.43c0.49,3.02,1.2,6.19,2.64,8.84c4.34,8,11.58,12,20.37,13.31
			c1.87,0.28,2.39,1,2.28,2.74c-0.12,1.81-0.1,3.64,0.02,5.44c0.15,2.07,1.64,3.46,3.47,3.46c0.08,0,0.15,0,0.23-0.01
			c1.87-0.12,3.18-1.56,3.24-3.69c0.06-1.94,0.1-3.9,0-5.84c-0.07-1.39,0.43-1.78,1.8-2.09c3.46-0.78,7.08-1.41,10.22-2.94
			c9.42-4.6,13.77-12.51,13.29-22.89c-0.45-9.71-5.69-16.15-14.59-19.67c-2.83-1.12-5.76-1.99-8.7-2.79
			c-1.5-0.41-2.08-1.03-2.05-2.66c0.11-6.1,0.04-12.19,0.05-18.29c0-0.57,0.06-1.14,0.12-2.4c1.9,1.15,3.46,1.92,4.8,2.97
			c2.18,1.7,3.17,4.17,3.99,6.75c1.14,3.59,3.54,5.53,6.58,5.53c0.7,0,1.44-0.1,2.2-0.31c3.92-1.08,6.05-4.72,4.77-9.05
			c-2.39-8.06-7.69-13.37-15.89-15.56c-1.68-0.45-3.43-0.69-5.16-0.94c-1.02-0.15-1.47-0.57-1.44-1.64
			c0.06-1.88,0.03-3.76,0.01-5.64c-0.03-2.59-1.26-4.09-3.36-4.17C232.08,225.41,232.03,225.41,231.98,225.41L231.98,225.41z
			 M228.34,267.88c-6.38-1.56-9.6-5.49-9.2-10.94c0.34-4.64,4.35-8.65,9.2-9.07C228.34,254.5,228.34,261.12,228.34,267.88
			L228.34,267.88z M235.66,308.32c0-7.74,0-15.45,0-23.33c8.02,1.83,11.72,5.99,11.35,12.51
			C246.71,302.96,241.84,307.66,235.66,308.32L235.66,308.32z"/>
	</g>
	<g>
		<path class="st1" d="M333.41,255.54c-13.58-0.44-26.06-11.98-27.81-25.72l-0.02-0.19c-0.19-1.48-0.35-2.78-0.28-3.23
			c0.09-0.01,0.26-0.03,0.57-0.03c0.23,0,0.49,0.01,0.78,0.02c0.4,0.01,0.85,0.02,1.37,0.02l0.51,0c1.46-0.02,2.92-0.03,4.38-0.03
			c1.22,0,2.44,0.01,3.65,0.01c1.14,0,2.29,0.01,3.43,0.01c1.25,0,2.5,0,3.76,0.01c1.29,0,2.59,0.01,3.88,0.01
			c1.94,0,3.87-0.01,5.81-0.05l0.1,0c0.64,0,0.79,0.12,0.81,0.14c0.03,0.03,0.16,0.2,0.16,0.97c-0.06,9.15-0.06,18.25,0.01,27.05
			c0.01,0.74-0.13,0.89-0.13,0.89c0,0-0.12,0.12-0.75,0.12L333.41,255.54z"/>
		<path d="M333.5,227.38c0,0.03,0,0.06,0,0.1c-0.06,9.14-0.06,18.25,0.01,27.06c-0.02,0-0.04,0-0.06,0
			c-13.11-0.42-25.15-11.57-26.84-24.84l-0.02-0.19c-0.1-0.79-0.2-1.55-0.25-2.12c0.09,0,0.19,0,0.29,0.01
			c0.4,0.01,0.87,0.02,1.4,0.02c0.17,0,0.35,0,0.53,0c1.3-0.02,2.69-0.03,4.37-0.03c1.21,0,2.42,0.01,3.64,0.01
			c1.15,0,2.29,0.01,3.44,0.01c1.24,0,2.47,0.01,3.71,0.01c1.31,0,2.63,0.01,3.94,0.01c2.26,0,4.11-0.02,5.81-0.05L333.5,227.38
			 M333.54,225.36c-0.04,0-0.08,0-0.12,0c-1.92,0.04-3.85,0.05-5.78,0.05c-2.55,0-5.1-0.02-7.65-0.02c-2.36,0-4.72-0.02-7.07-0.02
			c-1.47,0-2.94,0.01-4.4,0.03c-0.17,0-0.34,0-0.5,0c-0.9,0-1.6-0.04-2.14-0.04c-1.88,0-1.79,0.46-1.27,4.58
			c1.82,14.26,14.72,26.15,28.77,26.6c0.08,0,0.17,0,0.25,0c1.4,0,1.91-0.45,1.89-2.02c-0.07-9.01-0.07-18.03-0.01-27.04
			C335.52,225.92,335.06,225.36,333.54,225.36L333.54,225.36z"/>
	</g>
	<g>
		<path class="st1" d="M306.28,329.76c-0.74,0-0.88-0.13-0.89-0.15c-0.02-0.02-0.15-0.19-0.1-0.99
			c0.92-14.47,12.92-26.75,27.33-27.96c0.63-0.05,1.11-0.09,1.49-0.09c0.14,0,0.24,0.01,0.3,0.01c0.06,0.3,0.06,1.03,0.07,1.73
			c0,2.49,0,4.99,0,7.48c-0.01,6.16-0.01,12.52,0.04,18.78c0.01,0.78-0.13,0.98-0.17,1.02c-0.04,0.04-0.21,0.16-0.91,0.16l-0.13,0
			c-1.96-0.04-3.92-0.05-5.89-0.05c-1.31,0-2.62,0-3.93,0.01c-1.27,0-3.93,0.01-3.93,0.01c-1.23,0-6.15-0.02-7.38-0.02
			c-1.92,0-3.83,0.01-5.74,0.05L306.28,329.76z"/>
		<path d="M333.46,301.61c0,0.23,0,0.48,0,0.71c0,2.46,0,4.92-0.01,7.38c-0.01,6.19-0.02,12.59,0.04,18.89c0,0.06,0,0.11,0,0.16
			c-0.02,0-0.04,0-0.06,0l-0.11,0c-1.73-0.03-3.6-0.05-5.9-0.05c-1.32,0-2.64,0.01-3.95,0.01c-1.27,0-2.53,0.01-3.8,0.01l-0.14,0
			c-1.23,0-2.45,0-3.68-0.01c-1.23,0-2.46-0.01-3.69-0.01c-2.25,0-4.08,0.02-5.76,0.05l-0.12,0c0-0.02,0-0.04,0-0.07
			c0.89-13.98,12.49-25.85,26.41-27.02C332.98,301.65,333.24,301.62,333.46,301.61 M334.11,299.56c-0.4,0-0.91,0.04-1.57,0.1
			c-15.02,1.26-27.3,13.86-28.25,28.9c-0.11,1.72,0.45,2.21,2,2.21c0.05,0,0.1,0,0.16,0c1.91-0.04,3.81-0.05,5.72-0.05
			c2.46,0,4.91,0.02,7.37,0.02c0.05,0,0.09,0,0.14,0c2.58,0,5.17-0.02,7.75-0.02c1.95,0,3.91,0.01,5.86,0.05c0.05,0,0.1,0,0.16,0
			c1.55,0,2.1-0.51,2.08-2.2c-0.08-8.75-0.03-17.5-0.04-26.25C335.48,300.07,335.47,299.56,334.11,299.56L334.11,299.56z"/>
	</g>
	<g>
		<path class="st1" d="M129.88,255.55c-0.14,0-0.2-0.02-0.22-0.02c0.01-0.01-0.07-0.17-0.06-0.64c0.04-3.4,0.03-6.8,0.02-10.19
			l0-4.83h-0.01c0-0.93,0-1.87,0.01-2.8c0.01-3.22,0.02-6.55-0.04-9.83c-0.01-0.64,0.1-0.77,0.1-0.77c0,0,0.13-0.11,0.75-0.11
			c4.52,0.02,9.01,0.03,13.5,0.03c4.65,0,9.31-0.01,13.96-0.03c0.63,0,0.77,0.09,0.78,0.1c0,0,0.09,0.16,0.05,0.74
			c-0.88,14.71-12.16,26.59-26.82,28.24c-0.26,0.03-0.51,0.04-0.77,0.05c-0.33,0.01-0.66,0.03-0.99,0.07
			C130.05,255.55,129.96,255.55,129.88,255.55z"/>
		<path d="M130.59,227.35c4.45,0.02,8.9,0.03,13.35,0.03c4.59,0,9.18-0.01,13.77-0.03c-0.95,14.11-11.82,25.48-25.92,27.07
			c-0.23,0.03-0.46,0.03-0.69,0.04c-0.15,0.01-0.32,0.01-0.49,0.02c0.03-3.27,0.03-6.59,0.02-9.8c0-1.27,0-2.55,0-3.82l0-1.49
			c0-0.77,0-1.54,0.01-2.3C130.64,233.89,130.65,230.6,130.59,227.35 M157.93,225.34c-0.01,0-0.02,0-0.03,0
			c-4.65,0.02-9.3,0.03-13.96,0.03c-4.49,0-8.98-0.01-13.47-0.03c-0.01,0-0.02,0-0.03,0c-1.4,0-1.88,0.47-1.86,1.91
			c0.08,4.54,0.03,9.08,0.03,13.62c0,0,0,0,0.01,0c0,4.67,0.03,9.34-0.02,14.01c-0.01,1.12,0.31,1.69,1.29,1.69
			c0.12,0,0.25-0.01,0.39-0.03c0.58-0.07,1.17-0.05,1.75-0.11c15.2-1.71,26.81-13.98,27.72-29.18
			C159.82,225.74,159.32,225.34,157.93,225.34L157.93,225.34z"/>
	</g>
	<g>
		<path class="st1" d="M130.17,329.74c-0.41,0-0.52-0.07-0.52-0.07c0,0-0.07-0.13-0.07-0.68c0.03-3.36,0.03-6.71,0.02-10.07l0-2.88
			c0,0,0.01-3.39,0.01-4.66c0.01-3.22,0.02-6.55-0.03-9.82c-0.01-0.73,0.1-0.86,0.1-0.87c0,0,0.13-0.1,0.67-0.1l0.15,0
			c14.59,0.41,28.04,14.01,28.2,28.55c0,0.39-0.05,0.53-0.06,0.56c0,0,0,0,0,0c-0.02,0-0.15,0.04-0.46,0.04
			c-4.75-0.01-9.5-0.02-14.24-0.02c-4.59,0-9.18,0.01-13.76,0.02H130.17z"/>
		<path d="M130.59,301.6c13.9,0.45,26.69,13.29,27.1,27.13c-4.6-0.01-9.2-0.02-13.79-0.02c-4.43,0-8.87,0.01-13.31,0.02
			c0.03-3.27,0.03-6.59,0.02-9.81c0-0.58,0-1.15,0-1.73h0v-2.01c0-1.27,0-2.54,0.01-3.8C130.64,308.17,130.64,304.86,130.59,301.6
			 M130.36,299.58c-1.46,0-1.81,0.57-1.79,1.99c0.07,4.53,0.03,9.07,0.03,13.61c0,0,0,0-0.01,0c0,4.6,0.03,9.2-0.02,13.8
			c-0.01,1.19,0.29,1.77,1.6,1.77c0.01,0,0.01,0,0.02,0c4.57-0.02,9.14-0.02,13.71-0.02c4.76,0,9.52,0.01,14.28,0.02
			c0,0,0.01,0,0.01,0c1.17,0,1.54-0.44,1.53-1.61c-0.17-15.16-13.98-29.12-29.18-29.54C130.48,299.58,130.42,299.58,130.36,299.58
			L130.36,299.58z"/>
	</g>
</g>
</svg>
