<svg xmlns="http://www.w3.org/2000/svg" viewBox="0 0 281.72 409.6"><g id="Layer_2" data-name="Layer 2"><g id="Layer_1-2" data-name="Layer 1"><path d="M4.05,0H277.67c3.32,2.23,4.05,5.39,4.05,9.28q-.12,195.52,0,391c0,3.89-.73,7.05-4.05,9.28H4.05c-3.33-2.23-4-5.39-4-9.28Q.12,204.8,0,9.28C0,5.39.72,2.23,4.05,0Zm9.07,13V268.49H134.26V13Zm134.41,0V268.49H268.67V13ZM98.68,281.67c3,2.7,5.11,5.57,3.08,8.69-1.24,1.89-4.07,3.8-6.23,3.84q-22,.51-44,0a7.84,7.84,0,0,1-5.81-3.73c-.81-1.8.44-4.6,1-6.9.11-.44,1.37-.59,2.1-.87l-.93-.81H13.06v50.65H134.17V281.67Zm169.9,51V281.8H233.23c2.9,2.56,4.92,5.39,3,8.56-1.14,1.83-3.81,3.79-5.83,3.84q-22.4.48-44.8,0a7.46,7.46,0,0,1-5.44-3.7c-.79-1.74.27-4.4.77-6.6.16-.73,1.08-1.29,1.73-2H147.46v50.73Zm-168.2,13.12c.53,2.87,2,6,1.29,8.52-.49,1.79-3.88,3.88-6,3.93q-22,.51-44,0a8.11,8.11,0,0,1-5.9-3.63c-.88-1.62.15-4.4.68-6.59.14-.59,1.48-.9,2.27-1.34l-.75-.79H13.15V396.6H134.21V345.75Zm134.43,0c.52,2.88,1.88,6,1.27,8.55-.41,1.7-3.65,3.83-5.65,3.87q-22.4.49-44.8,0c-2-.05-4.8-2.12-5.66-4-.77-1.68.51-4.38,1.12-6.56.14-.5,1.29-.72,2-1.07l-.71-.71H147.57v50.71h121V345.77Z"/><path d="M108.84,150.24c0,9.18,0,18.36,0,27.54,0,5-2.45,7.86-6.51,7.78s-6.23-2.85-6.24-7.66q0-27.54,0-55.08c0-4.77,2.39-7.54,6.32-7.58s6.4,2.76,6.43,7.46C108.87,131.88,108.84,141.06,108.84,150.24Z"/><path d="M172.88,150c0-9,0-18.09,0-27.14,0-4.78,2.37-7.55,6.29-7.6s6.44,2.74,6.45,7.44q.06,27.73,0,55.48c0,4.68-2.54,7.47-6.49,7.4s-6.23-2.84-6.25-7.64C172.85,168.61,172.88,159.3,172.88,150Z"/></g></g></svg>