<svg xmlns="http://www.w3.org/2000/svg" viewBox="0 0 377.22 262.96"><g id="Layer_2" data-name="Layer 2"><g id="Layer_1-2" data-name="Layer 1"><path d="M34.28,56.85C35,44.66,38.39,33.58,45.67,24,57.39,8.5,73,.11,92.47.08q94.88-.19,189.75,0c31.85,0,57.11,24,58.89,55.78a12.76,12.76,0,0,0,.19,1.27c3.25.43,6.6.61,9.81,1.34,13.66,3.14,24.26,14.64,25.84,27.8,1.76,14.65-5.2,28.3-18.08,34.85-2.26,1.15-3,2.33-3,4.79.12,14.22.05,28.45.06,42.67,0,12.13-4.16,22.45-13.39,30.45-1.8,1.55-1.71,3-1.24,4.92,3,12.2,6.07,24.39,8.91,36.62,2.42,10.36-3.12,19.64-12.83,22-9.4,2.25-18.4-3.63-21.06-13.76-1.42-5.41-3-10.8-4.14-16.27-.52-2.4-1.61-3.13-3.82-2.89-.61.06-1.24,0-1.87,0q-118.08,0-236.16-.09c-3.65,0-5.24,1-5.94,4.62a152.51,152.51,0,0,1-4.15,16.26,17.65,17.65,0,0,1-16.55,12.37c-7.44,0-14.56-5-16.41-12.37a23.52,23.52,0,0,1,0-10.26c2.61-12.29,5.57-24.5,8.58-36.7A3.84,3.84,0,0,0,34.48,199a39.35,39.35,0,0,1-13.19-30.22c0-14.23-.05-28.45.06-42.68,0-2.4-.62-3.7-2.9-4.86C4.86,114.27-2.13,99.75.57,84.6c2.49-13.92,14.36-25,28.87-27C30.91,57.4,32.38,57.15,34.28,56.85Zm275.06,80.24c0-2.64,0-4.11,0-5.59.11-13.85.46-27.71.27-41.55s6.5-23.13,18.43-29.08c2.12-1.06,2.79-2.15,2.75-4.47-.41-24.42-21.51-45.86-46.22-45.94q-96.55-.32-193.13,0c-25,.08-45.8,20.87-46.81,45.86-.09,2.28.75,3.24,2.68,4.17,13.76,6.65,20.24,17.84,20.22,33q0,19.45,0,38.93c0,1.26.13,2.52.24,4.47,8.75-8.27,18.44-12.33,29.63-12.39,18.83-.09,37.68-.2,56.51,0,13.28.16,24,5.77,32.06,16.43.77,1,1.53,2.08,2.46,3.35,9.47-14.48,22.6-20.27,39.11-19.92,16.84.35,33.69,0,50.53.13a63.87,63.87,0,0,1,11.11,1.18C296.75,127.07,303,131.09,309.34,137.09ZM188,198.77h37.06c29.57,0,59.14.06,88.71,0,18.8-.06,31.11-12.5,31.13-31.23q0-23,0-46.05c0-5.78.41-6.35,5.94-8.34,12.11-4.36,18.38-16.91,14.45-28.93a23.69,23.69,0,0,0-26.11-16c-10.91,1.6-19.58,11.64-19.62,23.1-.09,24.58,0,49.17,0,73.75,0,7.12-.93,8.07-7.93,8.07H65.33c-7.26,0-8.1-.85-8.1-8.28q0-36.69,0-73.37c0-4.7-.82-9.15-3.45-13.17a24.09,24.09,0,0,0-26.14-10,23.76,23.76,0,0,0-17.29,22C9.88,100,16.5,109.47,26.18,113c5.22,1.88,5.68,2.52,5.68,8.13,0,15.85-.06,31.7.06,47.54a34,34,0,0,0,1.32,9.19c3.89,13.17,15.1,20.93,30.13,20.94Q125.7,198.81,188,198.77Zm121-35.71c.12-14-11.57-27.2-25.26-27.52q-31.41-.76-62.83-.06c-14.8.31-26.21,12.52-26.79,27.58Zm-240.87-.5H183a16.66,16.66,0,0,0,0-2.47c-2.49-14.88-14.22-25.15-29.3-25.27-18.82-.15-37.64,0-56.46,0a36.29,36.29,0,0,0-6.3.71C78.37,137.86,67.59,150.52,68.09,162.56Zm241,47.21H67.18v8.79H309.07Zm11.06,0c-1.15,13.47,3.84,25.87,7,38.54.77,3,5.26,4.53,8.14,3.58a7,7,0,0,0,4.81-8.19c-.54-2.55-1.31-5.05-1.94-7.59-2.41-9.73-4.81-19.46-7.24-29.27Zm-274-3.32c-3,12.78-6.11,25.31-8.91,37.9a6.6,6.6,0,0,0,5.29,7.83,7,7,0,0,0,8-5.11c1.21-4.43,1.93-9,3.23-13.4a62.4,62.4,0,0,0,2.14-24.58Z"/><path d="M152.48,83a7.47,7.47,0,0,1,14.93-.23,7.47,7.47,0,1,1-14.93.23Z"/><path d="M139.78,50a7.3,7.3,0,0,1-8,6.92A7.48,7.48,0,0,1,132.83,42,7.28,7.28,0,0,1,139.78,50Z"/><path d="M255.1,49.44a7.28,7.28,0,0,1-7.52,7.46,7.47,7.47,0,0,1,0-14.93A7.27,7.27,0,0,1,255.1,49.44Z"/><path d="M102.44,75.56a7.19,7.19,0,0,1,7.42,7.54,7.41,7.41,0,0,1-7.25,7.44,7.75,7.75,0,0,1-7.72-7.47A7.42,7.42,0,0,1,102.44,75.56Z"/><path d="M210,83.11a7.19,7.19,0,0,1,7.4-7.55A7.42,7.42,0,0,1,225,83.05a7.75,7.75,0,0,1-7.33,7.48A7.45,7.45,0,0,1,210,83.11Z"/><path d="M190.19,56.9A7.47,7.47,0,1,1,190.35,42a7.47,7.47,0,0,1-.16,14.93Z"/><path d="M275,75.55a7.54,7.54,0,0,1,7.55,7.55,7.79,7.79,0,0,1-7.78,7.44,7.62,7.62,0,0,1-7.29-7.48A7.38,7.38,0,0,1,275,75.55Z"/></g></g></svg>