<svg xmlns="http://www.w3.org/2000/svg" viewBox="0 0 306.78 307.05"><g id="Layer_2" data-name="Layer 2"><g id="Layer_1-2" data-name="Layer 1"><path d="M0,133.37V122.59a5.73,5.73,0,0,0,.59-1.29C3.44,104,16.29,90.28,33.31,87c3.22-.62,4.37-2,5.14-4.93A106.62,106.62,0,0,1,64,35.68c17.94-19.17,39.9-31,66.05-34.09C148.44-.57,166.94-.9,185.18,3c24.2,5.12,44.36,17.31,60.49,36.08a109.79,109.79,0,0,1,23.11,44.73,2.88,2.88,0,0,0,2.64,2.56c17.32,3.43,29,13.61,33.66,30.57s-.15,31.51-13.19,43.26a5.84,5.84,0,0,0-2.14,4.85q.11,36.08,0,72.15c0,12.64-4.91,22.77-15.42,30.09a4.81,4.81,0,0,0-1.67,3.34c-.24,4.38,0,8.79-.26,13.16-.48,6.76-3.52,12.32-8.52,16.91-3.72,3.42-8.31,4.9-12.94,6.4h-7.79c-.16-.12-.3-.32-.47-.35-12.76-2.31-22.09-13.44-21.21-28,.11-1.85,0-3.7,0-5.51H85.21c0,2.48,0,4.75,0,7,.07,9-3.07,16.52-10.47,21.68-3.33,2.32-7.48,3.47-11.26,5.16H55.71c-.64-.23-1.27-.49-1.92-.67-12-3.22-19.39-12.61-19.66-25-.08-3.28-.19-6.59,0-9.87a4.93,4.93,0,0,0-2.7-5A27.84,27.84,0,0,1,26.27,262c-6.63-6.91-9.36-15.35-9.36-24.78q0-36.21,0-72.41a6.06,6.06,0,0,0-2.06-4.59c-3.2-3.37-6.7-6.74-8.84-10.78C3.38,144.42,2,138.75,0,133.37ZM252.06,87.23c-.95-2.92-1.73-5.9-2.87-8.74C235.82,45.07,211.52,24.69,176,18.81c-10.33-1.71-21.1-1.38-31.64-1A103.31,103.31,0,0,0,120.13,21C92.4,28.67,72.46,46,60.18,72c-2.31,4.88-3.88,10.12-5.81,15.25,1.29.58,2,.91,2.72,1.21C74.69,95.8,84,109.28,84.92,128.06c.68,12.94.22,25.94.27,38.91v3.46h136.3V167c0-12.57,0-25.15,0-37.72.06-17,7.33-29.89,22.13-38.36A85,85,0,0,1,252.06,87.23ZM153.33,255.88q49.71,0,99.43,0a28.66,28.66,0,0,0,7.12-.64c7.95-2.05,12.67-8.63,12.68-17.4,0-25.46.16-50.91-.1-76.36-.06-5.94,1.8-9.83,6.79-13.16,9.63-6.43,12.95-19.78,8.22-30.43-4.8-10.8-16.64-17-28-14.72-12.9,2.64-20.9,12.64-21,26.4-.06,13.27.05,26.55-.07,39.82,0,2.27.79,3.27,2.76,4.2a25.21,25.21,0,0,1,11.39,34.53C247.38,217.72,239,222,228.26,222q-74.12,0-148.24,0a58.54,58.54,0,0,1-8-.56c-12.36-1.74-22.28-14.9-20.75-27.32,1.19-9.69,6.18-16.59,14.9-20.93a3.68,3.68,0,0,0,1.94-2.46c0-15,.16-29.94-.45-44.88-.46-11.34-10.85-21.68-21.82-22.92-11.52-1.31-22.86,5.32-26.67,15.59-4.49,12.11-1,23.76,9.48,30.74,4,2.66,5.61,6,5.58,10.74q-.21,38.77,0,77.55a21.51,21.51,0,0,0,1.89,8.94c3.38,7.11,9.61,9.5,17.21,9.49Q103.31,255.81,153.33,255.88Zm0-51.16q38.16,0,76.32,0c4.8,0,8.4-3.28,8.72-7.68a8.5,8.5,0,0,0-7-9,20.32,20.32,0,0,0-3.58-.14h-149c-.89,0-1.8,0-2.69,0a8.59,8.59,0,0,0-7.82,7.73,8.4,8.4,0,0,0,6.15,8.8,16.87,16.87,0,0,0,4.15.3Q116,204.74,153.38,204.72Zm-102,68.39c0,3.42-.23,6.6,0,9.74a7.82,7.82,0,0,0,7.68,7c4.23.19,7.94-2.28,8.57-6.28a98.41,98.41,0,0,0,.58-10.44Zm187.15,0c0,2.86,0,5.34,0,7.82a12.54,12.54,0,0,0,.33,2.36,8.1,8.1,0,0,0,7.23,6.5c4,.34,7.89-1.61,8.68-5.27s.63-7.57.88-11.41Z"/></g></g></svg>