<svg xmlns="http://www.w3.org/2000/svg" viewBox="0 0 360.33 263.79"><g id="Layer_2" data-name="Layer 2"><g id="Layer_1-2" data-name="Layer 1"><path d="M336.21,215.78H229.65c-8.79,0-13.46-4.62-13.46-13.31q0-50.71,0-101.45V96.26H24.12v4.24q0,75.26,0,150.5c0,6-2.89,10.27-8.15,12.1a11.25,11.25,0,0,1-13.27-4.18,15.5,15.5,0,0,1-2.44-8C0,232.87.14,214.78.14,196.68.14,135.91.26,75.13,0,14.36,0,5.93,5.36,0,14.55,0Q180.32.32,346.07,0c8.56,0,14.28,5.81,14.26,14.29-.24,78.75-.14,157.49-.15,236.24,0,7.73-4.77,13.07-11.71,13.17a11.79,11.79,0,0,1-12.24-11.88C336.16,240,336.21,228.14,336.21,215.78ZM336,24.33H24.42V71.84H336Zm-95.7,107.34H335.9V96.17H240.33Zm.1,24.37v35.51H336V156Z"/><path d="M180.16,60c-7.87,0-15.75,0-23.62,0-7.25,0-12.43-5.18-12.37-12.15.07-6.75,5.25-11.75,12.36-11.76q23.63-.06,47.25,0c7.21,0,12.44,5.2,12.37,12.13C216.09,55,210.87,60,203.79,60,195.92,60.05,188,60,180.16,60Z"/><path d="M288.22,125.91c-2.12,0-4.25,0-6.37,0a11.95,11.95,0,0,1-.08-23.89c4.24-.1,8.5-.09,12.75,0a12,12,0,0,1,.08,23.9C292.48,126,290.35,125.91,288.22,125.91Z"/><path d="M288.17,161.9c2.12,0,4.25-.05,6.37,0a12,12,0,0,1,0,23.9q-6.37.15-12.75,0a11.95,11.95,0,0,1,0-23.89C283.92,161.85,286,161.9,288.17,161.9Z"/></g></g></svg>