<svg xmlns="http://www.w3.org/2000/svg" viewBox="0 0 359.32 359.45"><g id="Layer_2" data-name="Layer 2"><g id="Layer_1-2" data-name="Layer 1"><path d="M341.35,191.69v4.8q0,77.32,0,154.63c0,6.69-1.65,8.32-8.4,8.33s-13.22,0-19.83,0c-5.75,0-7.66-1.88-7.67-7.55q0-27,0-53.91v-4.23H137.73v3.83c0,10.24,0,20.47,0,30.71,0,5.16-2.06,7.18-7.28,7.19H53.89c0,5.43,0,10.73,0,16,0,6.16-1.8,7.93-8,7.94H26c-6.24,0-8-1.77-8-8V191.69c-3.9,0-7.48,0-11.06,0-4.75,0-6.87-2.11-6.89-6.81,0-7.24,0-14.48,0-21.72,0-5.42,2-7.37,7.46-7.37h154v-24H103.11c-8.53,0-13.26-4.67-13.26-13.1q0-52.8,0-105.58C89.85,4.71,94.62,0,103.12,0H256.19c8.69,0,13.29,4.66,13.29,13.45V118.28c0,9-4.59,13.5-13.63,13.5H197.92v24H351.08c6.5,0,8.22,1.71,8.23,8.12,0,7,0,14,0,21,0,4.69-2.16,6.77-6.89,6.83C348.92,191.72,345.43,191.69,341.35,191.69ZM137.9,281.32H305.14V191.89H137.9ZM257.26,95.69V12.25H102V95.69ZM12.13,179.47H347.05V167.93H12.13Zm113.38,48V192H54.09V227.5ZM54.05,275.33h71.42V239.82H54.05Zm.1,12.39v35.51h71.43V287.72ZM257.36,108.08H102.1v11.55H257.36ZM41.68,347.32V192H30.13V347.32Zm276-155.46V347.19H329.2V191.86ZM185.4,155.6V132.08H173.86V155.6Z"/><path d="M179.66,41.91q-26,0-52,0c-5.23,0-7.78-1.93-7.84-5.88S122.34,30,127.44,30c34.94,0,69.87.12,104.8-.13,5.36,0,9.31,4.89,6.39,8.93a8.79,8.79,0,0,1-6.19,3C214.85,42,197.25,41.91,179.66,41.91Z"/><path d="M158.33,77.86q-15.54,0-31.07,0c-4.86,0-7.4-2-7.46-5.88s2.52-6.07,7.27-6.07h63.25c4.75,0,7.34,2.19,7.28,6.06s-2.59,5.88-7.46,5.89Q174.24,77.88,158.33,77.86Z"/><path d="M101.59,215.64c-2,0-4,.1-6,0a5.8,5.8,0,0,1-5.74-6.08,5.67,5.67,0,0,1,5.61-5.8q6.36-.23,12.73,0a5.68,5.68,0,0,1,5.56,5.85,5.76,5.76,0,0,1-5.44,6C106.09,215.77,103.84,215.64,101.59,215.64Z"/><path d="M101.71,263.57c-2.12,0-4.25.12-6.36,0a5.75,5.75,0,0,1-5.49-5.94,5.67,5.67,0,0,1,5.5-5.91c4.36-.16,8.74-.24,13.09,0,3.28.21,5.12,2.38,5.29,5.71a5.7,5.7,0,0,1-5.3,6.1C106.21,263.71,104,263.56,101.71,263.57Z"/><path d="M101.94,311.5c-2.13,0-4.25.11-6.37,0a5.77,5.77,0,0,1-5.71-6.09,5.69,5.69,0,0,1,5.64-5.78c4.24-.14,8.49-.15,12.73,0a5.68,5.68,0,0,1,5.53,5.88,5.76,5.76,0,0,1-5.46,6C106.19,311.62,104.06,311.5,101.94,311.5Z"/></g></g></svg>