<svg xmlns="http://www.w3.org/2000/svg" viewBox="0 0 479.08 343.85"><g id="Layer_2" data-name="Layer 2"><g id="Layer_1-2" data-name="Layer 1"><path d="M0,61.61C14.83,44.16,30,27,44.33,9.12,49.94,2.15,56,0,64.72,0Q245.28.38,425.84.06c6.6,0,11,2,14.79,7.51,11.47,16.69,23.56,33,35.1,49.6A19.64,19.64,0,0,1,478.84,67c.42,9,.16,18.08.14,27.12,0,7.32-2.76,10.06-10.18,10.2-1.71,0-3.41,0-5.73,0V332.26c0,9.21-2.36,11.56-11.66,11.58q-11.93,0-23.86,0c-10.31,0-12.43-2.08-12.43-12.23q0-110.4,0-220.79V104.6h-8v6.15q0,82.56,0,165.12c0,9.89-2.16,12-12.06,12.05-6.24,0-12.47.07-18.71,0-5.87-.09-8.88-3-9.29-8.85-.09-1.4,0-2.8,0-4.21V104.72H112V275.36c0,10.42-2.16,12.55-12.67,12.56-5.77,0-11.54,0-17.31,0-7.41-.05-10.11-2.87-10.11-10.7q0-83.26,0-166.53v-5.94h-8V331.21c0,10.6-2,12.62-12.5,12.63-8.27,0-16.53,0-24.8,0-8-.05-10.65-2.74-10.65-10.7q0-111.33,0-222.66v-5.91c-6-.45-12.43.87-15.93-5.53Zm25.94-5.89H455c-8.5-11.94-16.76-23.24-24.65-34.79-2.29-3.36-4.71-4.5-8.75-4.5q-178.43.18-356.87.1a14.74,14.74,0,0,0-3.26.06A6.16,6.16,0,0,0,58.27,18C47.59,30.37,37,42.79,25.94,55.72Zm436.91,17H16.18v15H462.85ZM47.54,327.23V104.73H32.18v222.5Zm384-222.65V327.06h15.28V104.58ZM95.21,271.49V104.56h-7V271.49Zm295.52,0V104.57h-7V271.49Z"/></g></g></svg>