<svg xmlns="http://www.w3.org/2000/svg" viewBox="0 0 383.42 319.56"><g id="Layer_2" data-name="Layer 2"><g id="Layer_1-2" data-name="Layer 1"><path d="M383.42,287.05c-.51,1.64-1,3.27-1.52,4.91a38,38,0,0,1-33.81,27.37c-1.86.13-3.74.21-5.6.21q-91.5,0-183,0c-4.92,0-9.68-.47-14.05-3a22.27,22.27,0,0,1-10.57-24c.31-1.45.67-2.88,1.08-4.6-5.42,0-10.63-.09-15.83,0-27.94.56-55.82,2-83.53,5.68-22.92,3.05-40.51-16.6-35.55-41,5.63-27.74,6.68-55.94,4.49-84.14-1.1-14.13-3.09-28.22-5.19-42.25C-2.12,109.81,8.9,93.43,25.15,90.18c.84-.16,1.67-.41,2.88-.71-2.34-3.42-4.49-6-9-6.29C7.88,82.5.16,74.31.19,63.86S8.12,45.74,19.25,44.55a11.19,11.19,0,0,0,6.58-3.34C45.32,19.23,69.67,6.26,98.57,2A185.49,185.49,0,0,1,125,.13c46.78-.14,93.55-.24,140.33.1C296.88.45,325,10.48,348.6,31.86a36.76,36.76,0,0,1,4.26,4.2c4.21,5.29,8.86,9,16.25,9.65,6,.55,10.31,5.18,12.86,10.89.44,1,1,1.93,1.45,2.9v9C380,77,374.22,82.61,364.71,83.2a9.74,9.74,0,0,0-7.3,3.75,114,114,0,0,1-43.31,31.11c-2.67,1.1-5.36,2.12-8.65,3.42,1.86.73,3.1,1.24,4.35,1.7A112.28,112.28,0,0,1,353,151.24c4.43,4.64,8.42,8.69,15.61,9.38,7.87.77,12.14,7,14.84,14.15V183c-3.43,9.45-9.78,15-20.2,15.23a4.88,4.88,0,0,0-3.09,1.11c-3.53,3.54-6.88,7.24-10.83,11.45,4.72,0,8.56-.1,12.4,0A22.27,22.27,0,0,1,382,225.33c.43,1.13.95,2.23,1.43,3.34v9c-2.23,6.42-5.54,12-12.21,15.5C378,259.23,381,267,383.42,275.08ZM144.08,275.12c-1.21-1.65-2-2.7-2.77-3.79a37.35,37.35,0,0,1-7-20.56,38.46,38.46,0,0,1,38.19-40c13.84-.13,27.69,0,41.53,0h4.1c-.1-2.09-.14-3.58-.26-5.07a199.87,199.87,0,0,1,12.22-85.46,9.58,9.58,0,0,1,3.05-4.06c2.38-1.79,5-1.34,7.24.46,2.89,2.32,2.74,5.3,1.58,8.48a188.46,188.46,0,0,0-11.31,78.16c.17,2.43.39,4.86.57,7.18h18.19a6.77,6.77,0,0,0,.16-1c-1-28.49.57-56.78,5.77-84.87,1.78-9.62-3.81-18.82-12.62-21.11-3.95-1-8.37-.63-12.55-.35-23.74,1.58-47.45,4-71.22,4.85-41.92,1.54-83.75-.6-125.44-5.26-12.31-1.38-22,9.4-20.26,21.65,2.12,14.9,4.3,29.84,5.41,44.85,2.22,30.09-.1,60-5.27,89.72a18.72,18.72,0,0,0,21.33,22c8.14-1.11,16.32-2.24,24.52-2.62,27.14-1.23,54.29-2.12,81.44-3.13C141.59,275.08,142.52,275.12,144.08,275.12ZM267.94,114.64a4.9,4.9,0,0,0,1,.19l6-.53c29-2.6,53.8-13.8,73-36.14a21.49,21.49,0,0,1,15.47-8c4.44-.3,7.1-2.69,7.19-6.08s-2.64-6-7.29-6.37a20.81,20.81,0,0,1-14.92-7.47c-21.75-25.44-50.06-36.83-82.86-37.14C218.29,12.69,171,13,123.75,13c-5.35,0-10.72.2-16,.7C79,16.47,54.5,27.8,35.52,50a20.81,20.81,0,0,1-15.16,7.77,14.72,14.72,0,0,0-1.49.13A6.51,6.51,0,0,0,13,64a6.19,6.19,0,0,0,6,6c7.72.23,13.34,3.86,18.17,9.63A104.35,104.35,0,0,0,47.58,89.85a6.89,6.89,0,0,0,3.92,1.78c26.39,1.35,52.77,3.13,79.17,3.72,32.3.71,64.52-1.51,96.66-4.9,6.1-.64,12.61-1,18.46.49C257.84,93.91,264.68,102.72,267.94,114.64Zm-16.4,192h0c31.31,0,62.62.09,93.93,0a25.29,25.29,0,0,0,23.86-33.08c-3.49-11-13.19-17.85-25.69-17.85q-84,0-168,0a35.86,35.86,0,0,1-3.74,0,6.15,6.15,0,0,1-5.57-6.37,6.05,6.05,0,0,1,5.66-6.25c1.36-.13,2.74-.07,4.11-.07q90.94,0,181.87,0a23.3,23.3,0,0,0,5.9-.62A9.31,9.31,0,0,0,362.6,224a40.11,40.11,0,0,0-5.59-.28H176.27c-2,0-4,.05-6,.22a25.23,25.23,0,0,0-21.86,17.26A25.67,25.67,0,0,0,156,268.44c5.59,4.88,12.19,6.26,19.41,6.25q83.07-.1,166.15,0a25.91,25.91,0,0,1,4.83.3,5.77,5.77,0,0,1,5.05,5.65c.24,3.25-1.21,5.63-4.37,6.55a19.33,19.33,0,0,1-5.16.51q-90.75,0-181.49,0c-1.49,0-3-.06-4.49.05a9.32,9.32,0,0,0-8.67,9.5c.08,5.55,4.21,9.33,10.41,9.33Q204.59,306.61,251.54,306.59Zm11-96.17a12.31,12.31,0,0,0,1.85.34c20.69,0,41.38.05,62.07-.06A7.1,7.1,0,0,0,330.8,209c6.1-5.48,12.21-11,18-16.8,4.07-4.09,8.59-6.65,14.4-6.88,4.37-.16,7.41-2.78,7.44-6.28s-3-6.31-7.35-6.42c-6.31-.16-11.17-2.91-15.14-7.63a98.5,98.5,0,0,0-23.36-20.24c-16.42-10.25-34.45-15.22-53.65-16.37-1.49-.09-3.38-.73-3.72,1.83-1.58,11.78-3.2,23.56-4.88,35.87h4.92c10.47,0,20.94,0,31.41,0,4.93,0,8,2.61,8,6.5s-3.09,6.52-8,6.55c-9.6,0-19.2,0-28.79,0h-7.55Z"/><path d="M51.15,193c.14,23.31-4.17,46.69-12.2,69.43-1.47,4.2-3.86,6.14-7.15,5.87-4.36-.35-6.72-4.42-5.42-9.08,2.92-10.4,6.31-20.71,8.5-31.27a180.4,180.4,0,0,0,2.26-57.64A200.69,200.69,0,0,0,26.51,125c-1.66-4.63-.17-8.13,3.74-9.41,3.72-1.23,6.78.61,8.43,5.19A206.26,206.26,0,0,1,51.15,193Z"/><path d="M191.76,64H84.42c-5.31,0-8.6-3.45-7.43-7.77.79-2.94,2.67-4.73,5.82-4.92,1.12-.07,2.24,0,3.36,0q105.66,0,211.33,0c6.25,0,9.49,2.24,9.38,6.49S303.67,64,297.61,64Z"/></g></g></svg>