<svg xmlns="http://www.w3.org/2000/svg" viewBox="0 0 371.44 335.43"><g id="Layer_2" data-name="Layer 2"><g id="Layer_1-2" data-name="Layer 1"><path d="M323.46,203.63c0,4.94-.16,9.42.1,13.88a6.57,6.57,0,0,0,2.1,3.64Q346.75,242.4,368,263.5a10.48,10.48,0,0,1,3.43,8.24c-.17,10.6-.05,21.21-.06,31.81,0,6.14-1.82,7.91-8.07,7.91-13.09,0-26.18,0-39.84,0,0,5.46,0,10.76,0,16.07,0,6-1.84,7.89-7.71,7.89q-16.47,0-32.93,0c-5.21,0-7.21-2-7.24-7.23,0-5.46,0-10.91,0-16.54H95.86v15.5c0,6.52-1.71,8.27-8.08,8.27q-16.29,0-32.57,0c-5.21,0-7.21-2-7.23-7.23,0-5.45,0-10.91,0-16.73H41c-11.35,0-22.7,0-34,0-4.73,0-6.84-2.13-6.85-6.86,0-11.23-.18-22.46.12-33.68a11,11,0,0,1,2.91-6.8Q24,242.71,45.4,221.72A7.81,7.81,0,0,0,48,215.19c-.2-3.71-.05-7.43-.05-11.56H30.56c-7.86,0-15.72,0-23.58,0-4.75,0-6.89-2.11-6.91-6.79C0,185.6.14,174.37,0,163.14A9.34,9.34,0,0,1,3.2,156c14.07-14,28-28.07,42.15-42A7.81,7.81,0,0,0,48,107.42C47.8,103.72,48,100,48,95.81H43.73q-18.15,0-36.31,0c-5.4,0-7.35-2-7.36-7.48C.05,77.22-.08,66.11.17,55A10,10,0,0,1,2.72,48.8q22.83-23.22,46.05-46A10.31,10.31,0,0,1,55.32.1Q185.75-.09,316.17.1a10.23,10.23,0,0,1,6.53,2.69q23.1,22.68,45.78,45.79a11.09,11.09,0,0,1,2.76,6.87c.29,11,.14,22,.13,32.93,0,5.44-2,7.41-7.44,7.42-13.33,0-26.66,0-40.45,0,0,5-.12,9.87.1,14.68.05,1,1.25,2,2.1,2.89q21.13,21.21,42.36,42.33a10.48,10.48,0,0,1,3.39,8.26c-.17,10.72-.05,21.46-.06,32.19,0,5.47-2,7.46-7.38,7.47C350.66,203.65,337.32,203.63,323.46,203.63ZM12.17,83.59H359.11V60.07H12.17Zm.12,84.25V191.5H359.2V167.84Zm347,107.94H12.31v23.53H359.25ZM20.54,47.91c6.12,0,11.11.17,16.08-.1a8,8,0,0,0,4.78-2C47.88,39.55,54,33,60.61,26.88a11.05,11.05,0,0,1,6.85-2.81q118.26-.22,236.54,0a11.06,11.06,0,0,1,6.84,2.82C317.42,33,323.62,39.51,330,45.82c.85.83,1.94,1.94,2.95,2,5.66.19,11.33.09,17.19.09-.28-.68-.31-1-.46-1.1-11.19-11.22-22.36-22.45-33.64-33.58A5.58,5.58,0,0,0,312.41,12Q185.72,11.9,59,12a7.28,7.28,0,0,0-4.44,2c-5.76,5.53-11.35,11.24-17,16.88ZM350.8,155.73c-12-12-23.26-23.36-34.64-34.55a6.69,6.69,0,0,0-4.33-1.36q-126.12-.09-252.26,0A8.12,8.12,0,0,0,54.46,122c-10.44,10.2-20.71,20.57-31,30.9-.74.74-1.41,1.55-2.58,2.85,5.83,0,10.91.15,16-.09a7.51,7.51,0,0,0,4.46-1.92c6.47-6.24,12.63-12.78,19.2-18.91a11.12,11.12,0,0,1,6.8-2.92q118.46-.22,236.91,0a10.48,10.48,0,0,1,6.53,2.7c6.64,6.22,12.94,12.81,19.43,19.21.83.81,2,1.81,3,1.84C338.73,155.82,344.3,155.73,350.8,155.73ZM20.61,263.57c6,0,11.12.14,16.19-.09a7.51,7.51,0,0,0,4.47-1.9c6.55-6.32,12.81-12.95,19.45-19.18a10.54,10.54,0,0,1,6.53-2.68q118.45-.21,236.92,0a10.48,10.48,0,0,1,6.53,2.67c6.57,6.13,12.79,12.62,19.16,18.95.78.78,1.66,2,2.53,2.05,5.88.18,11.76.1,18.5.1-11.58-11.55-22.49-22.34-33.26-33.27a8.23,8.23,0,0,0-6.51-2.68q-67.56.12-135.12.06-58,0-116,.05c-1.59,0-3.65.35-4.69,1.36C43.89,240.19,32.64,251.52,20.61,263.57ZM314.2,47.7c-5.91-7.42-11.77-14.16-22.51-11.87-2.26.48-4.72.07-7.09.07q-106.08,0-212.16,0c-1.45,0-3.37-.22-4.28.57-3.85,3.38-7.41,7.11-11.59,11.21Zm.93,107.94c-4-3.86-7.06-7.09-10.42-10a7.57,7.57,0,0,0-4.51-1.81q-114.49-.13-229-.07c-1,0-2.29-.15-2.86.38-3.83,3.58-7.5,7.32-11.73,11.52Zm-.27,107.71c-3.62-3.56-6.57-6.74-9.83-9.54a9,9,0,0,0-5.1-2.15c-6.48-.25-13-.1-19.46-.1q-104,0-208,0c-1.45,0-3.38-.22-4.27.57-3.84,3.41-7.37,7.16-11.43,11.2ZM96,107.56H275.27V96H96Zm0,107.82H275.27V203.83H96ZM83.74,96.07H60.22v11.55H83.74Zm203.86,11.5h23.63V96.12H287.6ZM60.24,203.72v11.67H83.62V203.72ZM287.7,215.43h23.56V203.91H287.7ZM60.08,323.19H83.73V311.67H60.08Zm251.24.14V311.68H287.77v11.65Z"/></g></g></svg>