<svg xmlns="http://www.w3.org/2000/svg" viewBox="0 0 244.58 368.46"><g id="Layer_2" data-name="Layer 2"><g id="Layer_1-2" data-name="Layer 1"><path d="M29.89,227.06c-3.75-.56-7.34-.9-10.84-1.66C8.46,223.1,2,213.7,3.17,202.52c1-9.88,10.05-17.86,20.47-17.51,6.8.23,13.58,1.24,21,2C39.45,142.08,34.26,97.47,29.06,52.7c-2.71-.33-5.29-.51-7.82-1C7.43,49.14-1.2,37.25.14,22.72,1.3,10.13,12.76,0,26.08,0q93.39,0,186.78,0c14.34,0,26,10.46,26.79,23.91.86,14.8-9,26.49-23.94,28.32-.85.1-1.71.13-2.91.22-5.21,44.7-10.41,89.33-15.66,134.47,7.75-.73,15.17-1.27,22.54-2.16,13.17-1.58,23.22,5.79,24.76,18.39,1.4,11.56-7.37,21.54-20.08,22.85l-10.91,1.15c.28,2.41.47,4.69.81,7q6.59,42.64,13.2,85.28,3.34,21.6,6.59,43.21c.52,3.45-1.2,5.68-4.59,5.77-4.74.12-9.48,0-14.22,0-3.1,0-4.28-1.91-4.94-4.61q-5.43-22.11-11-44.19c-1.65-6.64-3.42-13.25-4.91-19.93-.49-2.15-1.42-2.8-3.52-2.76-5.49.12-11,0-16.47,0q-62.14,0-124.27-.07c-3.34,0-4.62.92-5.46,4.26-5.18,20.76-10.72,41.44-16,62.18-.92,3.63-2.66,5.32-6.48,5.13-4-.2-8,0-12-.06-4.42-.05-6.19-2.14-5.39-6.41q6.48-34.87,13-69.75C21.89,270.59,25.86,248.94,29.89,227.06Zm89.9-183.85q45.28,0,90.58,0a39.53,39.53,0,0,0,6.7-.48c8.81-1.52,15.09-10.8,13.3-19.49C228.52,14.2,221.86,9,212.07,9H27.55c-.75,0-1.5,0-2.24,0A17.16,17.16,0,0,0,10,32c2.64,7.17,9,11.15,18.11,11.16Q73.94,43.23,119.79,43.21ZM116.7,222.72c23.63-.72,42-.93,60.27-1.95,15.91-.89,31.8-2.53,47.66-4.18,7.45-.78,11.4-6.09,10.65-13.11-.66-6.22-6.12-10.27-13.18-9.73-20.75,1.58-41.48,3.53-62.25,4.71a728,728,0,0,1-128.08-3.71c-2.47-.3-4.94-.67-7.42-.79a11.73,11.73,0,0,0-12.22,10.27,11.19,11.19,0,0,0,9.15,12.26,241.77,241.77,0,0,0,24.11,2.79C70.91,220.69,96.44,221.77,116.7,222.72ZM53,269.34h133.4a3.12,3.12,0,0,0,.15-.93c-3-12.2-5.92-24.41-9.06-36.57-.21-.81-1.93-1.77-2.92-1.75-7.35.17-14.7.81-22.05.85-21.07.1-42.14,0-63.21,0H62.9ZM160.09,52.51c-2.23,45.68-4.44,91.2-6.68,137.24l19.12-1c3.26-45.67,6.49-90.86,9.73-136.2ZM88.84,189.3C86,143.87,83.23,98.19,80.42,52.61H59.53C60.66,67.93,61.81,83,62.87,98q3.1,44,6.09,88c.17,2.47,1.19,3.27,3.42,3.26C77.6,189.28,82.82,189.3,88.84,189.3Zm40.67.85c1-46,1.94-91.67,2.92-137.55H109c1.56,46,3.12,91.7,4.68,137.55ZM224.12,359c-.13-1.24-.2-2.46-.38-3.66-1.87-12.05-3.78-24.1-5.64-36.16q-6.79-44.28-13.61-88.57c-.13-.85-1.14-2.26-1.71-2.24-5.38.19-10.76.63-16.18,1a12.67,12.67,0,0,0,.14,1.69Q202.07,293,217.35,354.92C218.27,358.68,219.64,360.48,224.12,359Zm-203.81.3c11.2-43.37,22.37-86.63,33.6-130.16L39,228c-8.14,43.93-16.21,87.52-24.33,131.35Zm28-71.86H191.22c-.27-1.22-.46-2.18-.69-3.12-1.39-5.81-1.4-5.81-7.36-5.81H50.61C49.84,281.56,49.15,284.3,48.35,287.46Zm139.5-99.66c5.27-45.29,10.49-90.17,15.74-135.26H191.42q-4.83,67.62-9.66,135.26ZM38.21,52.53C43.5,97.89,48.74,142.85,54,187.92l6.11.3c-3.25-45.42-6.48-90.47-9.71-135.69Zm51.35-.07C92.4,98.58,95.22,144.31,98,190.08h6.45c-1.57-46-3.14-91.81-4.71-137.62Zm52,.06c-1,46.12-2,91.81-3,137.56h5.63c2.23-45.87,4.45-91.61,6.69-137.56Z"/></g></g></svg>