<svg xmlns="http://www.w3.org/2000/svg" viewBox="0 0 319.48 383.31"><g id="Layer_2" data-name="Layer 2"><g id="Layer_1-2" data-name="Layer 1"><path d="M88.6,383.31l-2.52-1.48a11.76,11.76,0,0,1-5.89-13.3,11.62,11.62,0,0,1,11.68-9.15c17.1,0,34.19,0,51.29,0h4.34V311.42H45.44c-8.85,0-13.62-4.75-13.63-13.62q0-32.19,0-64.38c0-13.12-7-20.65-20-21.67C4.61,211.19-.4,205.69,0,198.86S5.75,187.5,13,187.65c22.36.46,40.13,17.07,43,40.6,14.53-7.27,30-4.52,45.19-4.62,44.67-.28,89.35-.07,134-.13,9.64,0,19.23-.06,28.39,4.85,1.07-8.9,3.81-16.75,9.17-23.53,8.63-10.92,19.91-16.67,33.82-17.15,7.29-.26,12.74,4.67,13,11.55s-4.86,12.09-12.12,12.54c-10,.63-17,6.13-19.15,15.34a27,27,0,0,0-.5,6.3c0,21.21-.23,42.42.08,63.63.12,7.81-4.61,14.64-14.47,14.53-32.19-.36-64.39-.14-96.59-.14H172v47.95h54.1c7.26,0,11.79,3.25,13.3,9.52,1.37,5.72-1.47,10.63-8,13.9-.2.1-.33.34-.49.52ZM263.22,287.4c0-7.14.1-14,0-20.8a19,19,0,0,0-18.84-18.85q-84.6-.12-169.2,0a19.06,19.06,0,0,0-18.88,18.83c-.14,5.73-.21,11.47-.29,17.2,0,1.19.11,2.37.17,3.62Z"/><path d="M159.59,207.69c-26.32,0-52.64.05-79,0-15,0-26.55-8.3-28.81-22-1.11-6.65.1-13.87,1.24-20.67,5.71-34.11,11.75-68.16,17.68-102.24C73,49.63,75.17,36.49,77.61,23.41,80.29,9,91.45,0,106.18,0h107.4c14.71,0,25.89,9.51,28.42,24q13,75,26.09,150c3,17.46-8.76,32.73-26.55,33.38-16.44.61-32.93.2-49.39.22Q175.88,207.71,159.59,207.69Zm0-24.17q39.67,0,79.36,0c4.72,0,6.09-1.66,5.27-6.21-.88-4.9-1.82-9.79-2.67-14.69q-11.65-66.95-23.23-133.9c-.57-3.32-2.1-4.79-5.43-4.79q-53.15,0-106.31,0c-3.08,0-4.79,1.26-5.34,4.46-3.15,18.4-6.42,36.78-9.62,55.17q-8.07,46.35-16.1,92.7c-1,6-.11,7.27,5.84,7.27Z"/></g></g></svg>