<svg xmlns="http://www.w3.org/2000/svg" viewBox="0 0 383.33 285.14"><g id="Layer_2" data-name="Layer 2"><g id="Layer_1-2" data-name="Layer 1"><path d="M0,238.27c.62-2,1.19-4,1.85-5.94A41.41,41.41,0,0,1,21.18,209q50.48-29.15,100.89-58.43,27.8-16.11,55.63-32.18c1.93-1.1,2.87-2.26,2.76-4.63-.88-19.47,7.56-33.66,24.32-43.39a25.38,25.38,0,0,0,11.48-29.75c-3.4-11.13-13.71-18.3-25.93-18-11.19.25-21,8.36-23.74,19.8a48.08,48.08,0,0,0-.68,5.92c-.79,7.23-5.67,11.58-12.44,11.08-6.22-.45-10.61-6-10.26-12.86C144.41,22.78,162.6,2.64,185,.31,210.1-2.31,231.66,12,238.26,35.74a47.56,47.56,0,0,1-22,54c-9.38,5.49-13.94,13.06-13.48,23.9a4.83,4.83,0,0,0,2.72,4.65q54.53,31.47,109,63.06c16.27,9.43,32.61,18.74,48.77,28.35,24.31,14.46,27.07,47.41,5.64,65.78-8.49,7.28-18.55,9.63-29.5,9.62q-131.91-.09-263.81,0c-12.72,0-25.46.27-38.15-.4-18.34-1-33-14.31-36.66-32.36A14.26,14.26,0,0,0,0,250.25Zm191.65,24.09H293.42c16.34,0,32.68.05,49,0,9.64,0,16.58-6,18.16-15.46,1.2-7.15-2.65-14.15-10.4-18.65q-77.9-45.16-155.77-90.36c-2.19-1.28-3.65-1.09-5.68.1q-54.9,31.91-109.86,63.7-23.28,13.49-46.54,27c-7.42,4.33-11,11.68-9.52,19,1.93,9.32,8.7,14.68,18.79,14.68Q116.64,262.38,191.65,262.36Z"/></g></g></svg>