<svg xmlns="http://www.w3.org/2000/svg" viewBox="0 0 359.31 215.63"><g id="Layer_2" data-name="Layer 2"><g id="Layer_1-2" data-name="Layer 1"><path d="M347.33,197.75H12c0,3.35,0,6.67,0,10,0,5.17-2,7.77-5.91,7.81S0,213,0,207.86V7.63C0,1.9,1.89,0,7.58,0H351.52c5.92,0,7.75,1.86,7.75,7.85q0,99.93,0,199.85c0,3.57-.67,6.53-4.44,7.67a5.84,5.84,0,0,1-7.5-5.61C347.21,205.91,347.33,202,347.33,197.75ZM347.15,108H12.25v77.42h334.9Zm-335-60.38H347V12.15H12.12ZM119.59,60.12H12.25v35.5H119.59Zm227.57,0H239.81V95.61H347.16ZM131.88,95.54h95.37V60.06H131.88Z"/><path d="M179.35,35.9c-3.75,0-7.49.05-11.23,0-4.05-.08-6.53-2.51-6.42-6.16.09-3.47,2.52-5.73,6.43-5.76,7.73-.06,15.47-.07,23.2,0,3.83,0,6.25,2.46,6.25,5.95s-2.44,5.87-6.26,6C187.33,36,183.34,35.9,179.35,35.9Z"/><path d="M65.93,71.86c3.87,0,7.74-.06,11.6,0s6.26,2.45,6.27,5.93-2.41,5.94-6.23,6q-11.79.12-23.58,0a5.76,5.76,0,0,1-6.07-6.12c.08-3.33,2.44-5.68,6-5.77C57.94,71.79,61.94,71.86,65.93,71.86Z"/><path d="M293.2,83.81c-3.86,0-7.73.07-11.6,0s-6.19-2.56-6.13-6.06a5.73,5.73,0,0,1,6-5.83q12-.14,24,0a5.73,5.73,0,0,1,5.94,5.87c0,3.5-2.37,5.94-6.17,6C301.19,83.88,297.2,83.81,293.2,83.81Z"/><path d="M179.87,83.81c-4,0-8,.06-12,0-3.81-.09-6.22-2.51-6.19-6s2.45-5.86,6.29-5.9q11.59-.1,23.2,0c3.88,0,6.31,2.34,6.39,5.81.07,3.66-2.4,6-6.49,6.1C187.35,83.86,183.61,83.81,179.87,83.81Z"/></g></g></svg>