<svg xmlns="http://www.w3.org/2000/svg" viewBox="0 0 231.99 384"><g id="Layer_2" data-name="Layer 2"><g id="Layer_1-2" data-name="Layer 1"><path d="M112.27,384c-3.17-1.87-6.72-3.32-9.43-5.72-4.17-3.7-5-8.9-5-14.37q.11-53.25,0-106.49v-4.67c-18.07-1.58-35.81-3.05-52.71-10.1-1.63,14.21-3.2,28-4.77,41.7-2.29,20.09-4.38,40.21-6.92,60.26-1.34,10.52-16.38,18-25.81,13.09C2.55,355.07-.37,350.77,0,345c.65-9.34,1.67-18.65,2.6-28q2.41-24.22,4.89-48.44,2.82-27.94,5.67-55.89Q15.6,188.83,18,165q2.84-28.14,5.7-56.26C25.29,93,26.82,77.17,28.51,61.41c.31-3-.45-4.61-3.22-6.15C15.59,49.87,8.16,42.45,5.7,31.05c-1.82-8.44-.12-12.63,7.44-16.69,9.8-5.27,20.56-7.64,31.44-8.93C61,3.47,77.54,2.25,94,.69,95.63.54,97.21.23,98.79,0h34.44l20.44,1.54c17.26,1.33,34.51,2.89,51.26,7.55a75.34,75.34,0,0,1,14.23,5.5c7.28,3.75,8.93,8,7.26,16.07-2.4,11.54-9.83,19.12-19.65,24.6-2.74,1.53-3.58,3.11-3.26,6.1,2,18.49,3.82,37,5.69,55.49q2.43,24,4.83,48.06,2.82,27.93,5.66,55.87,2.42,23.83,4.81,47.68,2.83,28.13,5.69,56.24c.66,6.58,1.52,13.16,1.79,19.76.4,9.93-8,16.72-17.58,14.25-11-2.82-15.41-7.2-16.77-20.59-2.87-28.17-6.33-56.28-9.54-84.42-.4-3.46-.73-6.94-1.16-11-17,7-34.75,8.56-53,10v4.47c0,34.49-.24,69,.14,103.46.12,11.28-3.3,19.39-14.29,23.36Zm-64-168.6c15.66-5.47,31.06-7.41,46.63-8.33,2.22-.14,3-.81,3-3.09q-.08-65,0-130.08c0-2.57-1.08-3.12-3.3-3.27-7.21-.48-14.41-1.09-21.6-1.7-2.55-.22-5.09-.59-7.92-.93C59.44,117.25,53.87,166.05,48.24,215.4ZM134,206.74c16.91,1.17,33.4,2.79,49.75,8.64C178.13,165.87,172.54,117,167,68.18l-32.94,3ZM110,71.22v4.91q0,69.36,0,138.73,0,75,0,150c0,4.25,2.17,6.87,5.63,7s6-2.63,6.19-7c0-.75,0-1.5,0-2.25q-.08-75-.13-150,0-68.25.13-136.48V71.42c-1.26-.1-2-.19-2.74-.2C116.2,71.21,113.34,71.22,110,71.22ZM18.64,24.74c3.77,1.23,6.53,2.31,9.38,3,24.89,6.41,50.35,8.6,75.89,8.8,20.29.17,40.65-.59,60.86-2.33C178.94,33,192.93,29.53,207,26.93c1.94-.36,3.74-1.42,6.09-2.35C174.55,8.17,57,8.23,18.64,24.74ZM178.88,65.65c1,8.91,2,17.46,3,26q3.15,27.71,6.32,55.4,3.18,27.88,6.39,55.77,3.16,27.69,6.28,55.39,3.22,28.26,6.47,56.51c1,9,2,18.1,3.08,27.14.31,2.67,5.09,6,7.71,5.19,3.31-1,1.7-3.62,1.51-5.67-.79-8.44-1.65-16.89-2.49-25.33q-2.38-23.83-4.78-47.67-2.84-28.12-5.7-56.23-2.41-23.84-4.79-47.68l-5.7-56.23c-1.55-15.26-3.1-30.51-4.67-46ZM40.53,62.19c-1.43,14.31-2.8,28.21-4.2,42.12q-2.84,28.13-5.71,56.26-2.4,23.85-4.8,47.7Q23,236.22,20.15,264.16q-2.45,24.22-4.91,48.44Q13.65,328.24,12,343.9c-.2,2,.4,3.21,2.56,3.19a7.48,7.48,0,0,0,7.18-6.68c1.06-9.68,2.18-19.35,3.29-29q3.19-27.9,6.41-55.8,3.15-27.71,6.27-55.42,3.2-27.9,6.45-55.79,3.24-28.27,6.46-56.54c.84-7.4,1.64-14.8,2.46-22.19ZM24.74,40.75C29.12,43.18,33.33,46,37.9,48,52,54.09,67.07,56.34,82.21,57.67c26.64,2.32,53.3,2.18,79.84-1.46,12.23-1.67,24.31-4.17,35.47-9.77,3.38-1.69,6.48-3.94,9.71-5.93A493.71,493.71,0,0,1,24.74,40.75ZM184.56,229.68c-15.9-8.19-33.06-9.33-50.45-10.84v21.65C151.5,239.07,168.68,237.87,184.56,229.68Zm-87-10.84c-17.35,1.6-34.49,2.68-50.2,10.89,15.84,8,32.84,9.42,50.2,10.68Z"/></g></g></svg>