<svg xmlns="http://www.w3.org/2000/svg" viewBox="0 0 408.31 408.79"><g id="Layer_2" data-name="Layer 2"><g id="Layer_1-2" data-name="Layer 1"><path d="M85.74,408.79c-3.65-2.29-4.69-5.65-4.68-9.83q.07-194.58,0-389.17C81.11,2.25,83.35,0,90.79,0H316.71c7.92,0,10,2.13,10,10.27q0,189.39,0,378.79v6.13h4.48c22.22,0,44.44.09,66.66-.08,4.23,0,7.77.69,10.46,4.1v9.58Zm199.51-13.88V41.08H122.57V394.91Zm-176.9.15v-5.84q0-175.82,0-351.65c0-8.23,2.17-10.4,10.35-10.4H289.15a28.61,28.61,0,0,1,3.59.07c3.35.43,5.75,2.1,6.29,5.63a39.36,39.36,0,0,1,.41,5.94q0,175.23,0,350.46v5.65h13.08V13.83H95.41V395.06Z"/><path d="M3.5,408.79c-.71-.73-1.8-1.34-2.06-2.2-.68-2.29-1.94-5-1.22-6.92s3.53-4.18,5.47-4.23q21.11-.53,42.22,0c1.93.05,4.73,2.39,5.42,4.29s-.59,4.66-1.32,6.94c-.28.85-1.44,1.41-2.2,2.11Z"/><path d="M203.86,136.4H145.64c-7.7,0-9.91-2.24-9.95-10-.15-29.72,12.41-52.09,39.23-65.34C215,41.25,264.13,67.15,271,111.43a116.67,116.67,0,0,1,1.09,15.87c.09,6.65-2.51,9.08-9.19,9.09Q233.38,136.44,203.86,136.4ZM167.73,82l28.88,28.9V68.76A53.62,53.62,0,0,0,167.73,82Zm43.55-13.28v42.47l29.18-28.84A53.93,53.93,0,0,0,211.28,68.76ZM185.9,122.32,157.66,94c-5.14,8.5-8.21,17.83-8,28.31Zm64.49-27.88c-9.46,9.45-18.78,18.77-27.81,27.78h35.66A52.45,52.45,0,0,0,250.39,94.44Z"/><path d="M135.69,326.88q0-22.15,0-44.3c0-8,2.19-10.2,10.13-10.21h41.5c7.4,0,9.91,2.43,9.92,9.71q0,44.9,0,89.79c0,7.4-2.39,9.73-9.81,9.73h-41.9c-7.73,0-9.83-2.12-9.84-10Q135.67,349.24,135.69,326.88Zm47.44-40.28h-33.3v81h33.3Z"/><path d="M272.13,326.94q0,22.35,0,44.69c0,7.85-2.14,10-9.9,10h-42.3c-6.85,0-9.34-2.46-9.35-9.39q0-45.1,0-90.19c0-7.11,2.54-9.63,9.57-9.64,13.57,0,27.14,0,40.71,0,9.56,0,11.27,1.74,11.28,11.47ZM258,367.72V286.65H224.88v81.07Z"/><path d="M197.26,204.6q0,22.14,0,44.29c0,7.81-2.19,10-9.89,10q-21.15,0-42.29,0c-7.15,0-9.36-2.16-9.37-9.26q-.06-45.28,0-90.58c0-7.08,2.22-9.21,9.4-9.23q21.34,0,42.69,0c7.14,0,9.44,2.38,9.45,9.66Q197.3,182.06,197.26,204.6Zm-14.12-40.71H149.82v81h33.32Z"/><path d="M272.13,204.37q0,22.35,0,44.69c0,7.9-2,9.86-10,9.87q-21,0-41.9,0c-7.45,0-9.67-2.27-9.68-9.83q0-44.68,0-89.38c0-7.58,2.22-9.85,9.66-9.86q21.14,0,42.29,0c7.56,0,9.59,2.1,9.61,9.83Q272.15,182,272.13,204.37Zm-47.32-40.63V244.9H258V163.74Z"/></g></g></svg>